<svg width="37" height="40" viewBox="0 0 37 40" fill="none" xmlns="http://www.w3.org/2000/svg">
<path d="M30.8333 4H28.7778V2C28.7778 1.46957 28.5612 0.960859 28.1757 0.585786C27.7902 0.210714 27.2674 0 26.7222 0C26.1771 0 25.6542 0.210714 25.2687 0.585786C24.8832 0.960859 24.6667 1.46957 24.6667 2V4H12.3333V2C12.3333 1.46957 12.1168 0.960859 11.7313 0.585786C11.3458 0.210714 10.8229 0 10.2778 0C9.73261 0 9.20977 0.210714 8.82428 0.585786C8.43879 0.960859 8.22222 1.46957 8.22222 2V4H6.16667C4.53117 4 2.96265 4.63214 1.80618 5.75736C0.649701 6.88258 0 8.4087 0 10V34C0 35.5913 0.649701 37.1174 1.80618 38.2426C2.96265 39.3679 4.53117 40 6.16667 40H30.8333C32.4688 40 34.0374 39.3679 35.1938 38.2426C36.3503 37.1174 37 35.5913 37 34V10C37 8.4087 36.3503 6.88258 35.1938 5.75736C34.0374 4.63214 32.4688 4 30.8333 4ZM10.2778 30C9.87123 30 9.47381 29.8827 9.13577 29.6629C8.79774 29.4432 8.53427 29.1308 8.37869 28.7654C8.22311 28.3999 8.18241 27.9978 8.26172 27.6098C8.34103 27.2219 8.53681 26.8655 8.82428 26.5858C9.11176 26.3061 9.47802 26.1156 9.87676 26.0384C10.2755 25.9613 10.6888 26.0009 11.0644 26.1522C11.44 26.3036 11.761 26.56 11.9869 26.8889C12.2128 27.2178 12.3333 27.6044 12.3333 28C12.3333 28.5304 12.1168 29.0391 11.7313 29.4142C11.3458 29.7893 10.8229 30 10.2778 30ZM26.7222 30H18.5C17.9548 30 17.432 29.7893 17.0465 29.4142C16.661 29.0391 16.4444 28.5304 16.4444 28C16.4444 27.4696 16.661 26.9609 17.0465 26.5858C17.432 26.2107 17.9548 26 18.5 26H26.7222C27.2674 26 27.7902 26.2107 28.1757 26.5858C28.5612 26.9609 28.7778 27.4696 28.7778 28C28.7778 28.5304 28.5612 29.0391 28.1757 29.4142C27.7902 29.7893 27.2674 30 26.7222 30ZM32.8889 18H4.11111V10C4.11111 9.46957 4.32768 8.96086 4.71317 8.58579C5.09866 8.21071 5.6215 8 6.16667 8H8.22222V10C8.22222 10.5304 8.43879 11.0391 8.82428 11.4142C9.20977 11.7893 9.73261 12 10.2778 12C10.8229 12 11.3458 11.7893 11.7313 11.4142C12.1168 11.0391 12.3333 10.5304 12.3333 10V8H24.6667V10C24.6667 10.5304 24.8832 11.0391 25.2687 11.4142C25.6542 11.7893 26.1771 12 26.7222 12C27.2674 12 27.7902 11.7893 28.1757 11.4142C28.5612 11.0391 28.7778 10.5304 28.7778 10V8H30.8333C31.3785 8 31.9013 8.21071 32.2868 8.58579C32.6723 8.96086 32.8889 9.46957 32.8889 10V18Z" fill="#231F20"/>
</svg>
