<svg width="35" height="35" viewBox="0 0 35 35" fill="none" xmlns="http://www.w3.org/2000/svg">
<path d="M34 -2H1C0.447715 -2 0 -1.56181 0 -1.02128V35.1915C0 35.732 0.447715 36.1702 1 36.1702H34C34.5523 36.1702 35 35.732 35 35.1915V-1.02128C35 -1.56181 34.5523 -2 34 -2Z" fill="#FFEDB3"/>
<path d="M31 20.5107C31 27.2673 24.9557 32.7447 17.5 32.7447C10.0441 32.7447 4 27.2673 4 20.5107C4 13.754 10.9358 8.27661 17.5 8.27661C24.0643 8.27661 31 13.754 31 20.5107Z" fill="#F0F0F0"/>
<path d="M17.5 5.34033C9.90608 5.34033 3.75 11.2289 3.75 18.4929V23.9459C3.75 25.4269 5.00513 26.6276 6.5534 26.6276C8.10168 26.6276 9.3568 25.4269 9.3568 23.9459V21.7295V24.0736C9.3568 25.4842 10.5521 26.6276 12.0267 26.6276C13.5013 26.6276 14.6966 25.4842 14.6966 24.0736V21.7295V23.9459C14.6966 25.4269 15.9517 26.6276 17.5 26.6276C19.0458 26.6276 20.2994 25.4308 20.3034 23.953V24.0736C20.3034 25.4842 21.4987 26.6276 22.9732 26.6276C24.4478 26.6276 25.6432 25.4842 25.6432 24.0736V23.9459C25.6432 25.4269 26.8983 26.6276 28.4465 26.6276C29.995 26.6276 31.25 25.4269 31.25 23.9459V19.5668C31.25 19.5658 31.25 19.5646 31.25 19.5636V18.4929C31.25 11.2289 25.094 5.34033 17.5 5.34033Z" fill="#FCFCFC"/>
<path d="M9 19.0147C10.1046 19.0147 11 18.1384 11 17.0573C11 15.9762 10.1046 15.0999 9 15.0999C7.89543 15.0999 7 15.9762 7 17.0573C7 18.1384 7.89543 19.0147 9 19.0147Z" fill="#FFCEB9"/>
<path d="M26 19.0147C27.1046 19.0147 28 18.1384 28 17.0573C28 15.9762 27.1046 15.0999 26 15.0999C24.8954 15.0999 24 15.9762 24 17.0573C24 18.1384 24.8954 19.0147 26 19.0147Z" fill="#FFCEB9"/>
<path d="M11.375 16.5958C12.4105 16.5958 13.25 15.7741 13.25 14.7606C13.25 13.7471 12.4105 12.9255 11.375 12.9255C10.3395 12.9255 9.5 13.7471 9.5 14.7606C9.5 15.7741 10.3395 16.5958 11.375 16.5958Z" fill="#525151"/>
<path d="M12.1953 14.5058C11.8717 14.5058 11.6094 14.2491 11.6094 13.9324C11.6094 13.6156 11.8717 13.3589 12.1953 13.3589C12.5189 13.3589 12.7812 13.6156 12.7812 13.9324C12.7812 14.2491 12.5189 14.5058 12.1953 14.5058Z" fill="white"/>
<path d="M11.2578 15.194C11.0636 15.194 10.9062 15.04 10.9062 14.8499C10.9062 14.6599 11.0636 14.5059 11.2578 14.5059C11.452 14.5059 11.6094 14.6599 11.6094 14.8499C11.6094 15.04 11.452 15.194 11.2578 15.194Z" fill="white"/>
<path d="M23.875 16.5958C24.9105 16.5958 25.75 15.7741 25.75 14.7606C25.75 13.7471 24.9105 12.9255 23.875 12.9255C22.8395 12.9255 22 13.7471 22 14.7606C22 15.7741 22.8395 16.5958 23.875 16.5958Z" fill="#525151"/>
<path d="M24.6953 14.5058C24.3716 14.5058 24.1093 14.2491 24.1093 13.9324C24.1093 13.6156 24.3716 13.3589 24.6953 13.3589C25.0189 13.3589 25.2812 13.6156 25.2812 13.9324C25.2812 14.2491 25.0189 14.5058 24.6953 14.5058Z" fill="white"/>
<path d="M23.7578 15.194C23.5636 15.194 23.4062 15.04 23.4062 14.8499C23.4062 14.6599 23.5636 14.5059 23.7578 14.5059C23.9519 14.5059 24.1093 14.6599 24.1093 14.8499C24.1093 15.04 23.9519 15.194 23.7578 15.194Z" fill="white"/>
<path fill-rule="evenodd" clip-rule="evenodd" d="M17.6865 20.1555C17.2748 21.0085 16.5274 21.5629 15.8285 21.4616C14.9685 21.3371 14.5075 20.2671 14.7988 19.0718C15.09 17.8767 16.0232 17.0087 16.8832 17.1332C17.2239 17.1826 17.5019 17.3803 17.6954 17.6754C17.8884 17.3889 18.1627 17.1973 18.4973 17.1488C19.3573 17.0242 20.2905 17.8922 20.5817 19.0875C20.873 20.2828 20.412 21.3527 19.552 21.4773C18.8488 21.5791 18.0966 21.0173 17.6865 20.1555Z" fill="#ED653B"/>
<path d="M14.939 17.1946C14.4521 16.8058 14.4481 16.0789 14.9306 15.6848L17.0741 13.9347C17.4437 13.633 17.9803 13.6317 18.3514 13.9315L20.5171 15.6816C21.005 16.0758 21.0009 16.8087 20.5088 17.1977L18.343 18.9099C17.975 19.2008 17.449 19.1993 17.0824 18.9067L14.939 17.1946Z" fill="#FFD500"/>
<g style="mix-blend-mode:multiply">
<path fill-rule="evenodd" clip-rule="evenodd" d="M20.8639 16.6153C20.0779 17.0578 19.0113 17.3297 17.8365 17.3297C16.5388 17.3297 15.3731 16.9979 14.5719 16.4709C14.5814 16.7408 14.7039 17.0073 14.939 17.1951L17.0825 18.9072C17.449 19.1998 17.975 19.201 18.3431 18.9101L20.5088 17.1982C20.7041 17.0438 20.8226 16.8353 20.8639 16.6153Z" fill="#FFD500" fill-opacity="0.5"/>
</g>
<path d="M18.2706 30.3163C18.1342 30.373 17.9795 30.4029 17.8221 30.4029H17.4133C17.2558 30.4029 17.1012 30.373 16.9648 30.3163L13.6135 28.9231C12.9855 28.662 12.2081 29.0182 12.254 29.5392C12.3791 30.9608 12.3766 32.0816 12.2519 33.5032C12.2063 34.0237 12.9828 34.379 13.6101 34.1181L17.0958 32.6691C17.2321 32.6124 17.3868 32.5825 17.5442 32.5825H17.6911C17.8486 32.5825 18.0033 32.6124 18.1396 32.6691L21.6422 34.1252C22.2662 34.3846 23.0395 34.0344 22.9985 33.5165C22.8852 32.0848 22.88 30.9598 22.9942 29.5289C23.0355 29.0097 22.2607 28.6576 21.6352 28.9174L18.2706 30.3163Z" fill="#ED653B"/>
<g style="mix-blend-mode:multiply">
<path fill-rule="evenodd" clip-rule="evenodd" d="M12.3466 31.5212C12.346 32.1567 12.3142 32.7924 12.2519 33.5032C12.2063 34.0236 12.9828 34.3789 13.6101 34.118L17.0958 32.669C17.2321 32.6123 17.3868 32.5824 17.5442 32.5824H17.6911C17.8486 32.5824 18.0033 32.6123 18.1396 32.669L21.6422 34.1251C22.2662 34.3845 23.0395 34.0344 22.9985 33.5164C22.9417 32.8002 22.9122 32.1608 22.911 31.5212H12.3466Z" fill="#ED653B" fill-opacity="0.45"/>
</g>
<path fill-rule="evenodd" clip-rule="evenodd" d="M17.5759 9.12929C16.6444 9.71347 15.3917 9.60703 14.5774 8.81001L12.3577 6.63761C11.4179 5.71776 11.4179 4.2264 12.3577 3.30657C13.1557 2.52555 14.3747 2.40769 15.2997 2.95296C15.5058 1.85696 16.4871 1.02661 17.6665 1.02661C18.8142 1.02661 19.7743 1.81292 20.015 2.86514C20.9164 2.42349 22.042 2.57065 22.794 3.30657C23.7338 4.2264 23.7338 5.71776 22.794 6.63761L20.5744 8.81001C19.76 9.60703 18.5073 9.71347 17.5759 9.12929Z" fill="#ED653B"/>
<g style="mix-blend-mode:multiply">
<path fill-rule="evenodd" clip-rule="evenodd" d="M23.3853 5.68871C23.2723 5.34175 23.0753 5.01533 22.794 4.74006C22.042 4.00416 20.9164 3.85701 20.015 4.29863C19.7743 3.2464 18.8142 2.4601 17.6665 2.4601C16.4871 2.4601 15.5059 3.29047 15.2998 4.38645C14.3747 3.84118 13.1557 3.95906 12.3577 4.74006C12.0765 5.01533 11.8794 5.34175 11.7665 5.68871C11.502 4.87618 11.6991 3.95094 12.3577 3.30635C13.1557 2.52533 14.3747 2.40744 15.2998 2.95271C15.5059 1.85674 16.4871 1.02637 17.6665 1.02637C18.8142 1.02637 19.7743 1.8127 20.015 2.8649C20.9164 2.42327 22.042 2.57043 22.794 3.30635C23.4525 3.95094 23.6498 4.87618 23.3853 5.68871Z" fill="#ED653B" fill-opacity="0.5"/>
</g>
</svg>
