<svg width="350" height="350" viewBox="0 0 350 350" fill="none" xmlns="http://www.w3.org/2000/svg">
<path d="M92.6553 191.041C92.6553 191.041 87.2863 139.941 123.833 133.06C160.38 126.179 167.174 131.95 192.629 114.478C218.085 97.0063 298.511 148.579 282.229 221.12C280.309 229.723 277.872 238.203 274.932 246.512" stroke="#CCDDE2" stroke-width="3.7" stroke-miterlimit="10"/>
<path d="M250.274 157.213H236.981V330.81H250.274V157.213Z" stroke="#CCDDE2" stroke-width="3.7" stroke-miterlimit="10"/>
<path d="M131.348 290.819V157.213H236.982V330.813H219.184V277.498C219.18 275.36 218.327 273.312 216.814 271.803C215.301 270.294 213.25 269.447 211.113 269.448H157.983C155.846 269.448 153.796 270.295 152.283 271.804C150.77 273.313 149.918 275.361 149.912 277.498V330.813H132.591M144.022 247.58C143.91 247.579 143.8 247.557 143.697 247.513C143.594 247.47 143.501 247.407 143.422 247.328C143.344 247.249 143.282 247.154 143.24 247.051C143.198 246.948 143.177 246.837 143.178 246.726V239.894C143.178 239.67 143.267 239.455 143.425 239.297C143.583 239.139 143.798 239.05 144.022 239.05H157.798C157.909 239.049 158.02 239.07 158.123 239.112C158.226 239.154 158.321 239.216 158.4 239.294C158.479 239.373 158.542 239.466 158.586 239.569C158.629 239.672 158.651 239.782 158.652 239.894V246.726C158.652 246.838 158.63 246.949 158.588 247.053C158.545 247.157 158.482 247.251 158.402 247.33C158.323 247.41 158.229 247.473 158.125 247.516C158.021 247.558 157.91 247.58 157.798 247.58H144.022ZM168.238 258.668C168.236 258.893 168.145 259.108 167.985 259.267C167.826 259.425 167.61 259.515 167.384 259.515H153.608C153.383 259.515 153.167 259.425 153.007 259.267C152.847 259.108 152.756 258.893 152.754 258.668V251.829C152.757 251.604 152.848 251.389 153.008 251.232C153.168 251.074 153.383 250.985 153.608 250.985H167.384C167.609 250.985 167.824 251.074 167.984 251.232C168.144 251.389 168.235 251.604 168.238 251.829V258.668ZM161.35 246.726V239.894C161.35 239.782 161.373 239.672 161.416 239.569C161.459 239.466 161.523 239.373 161.602 239.294C161.681 239.216 161.775 239.154 161.879 239.112C161.982 239.07 162.092 239.049 162.204 239.05H175.98C176.205 239.05 176.42 239.139 176.58 239.297C176.74 239.454 176.831 239.669 176.834 239.894V246.726C176.833 246.952 176.743 247.168 176.583 247.328C176.423 247.488 176.206 247.579 175.98 247.58H162.201C162.089 247.58 161.978 247.558 161.874 247.515C161.771 247.471 161.677 247.408 161.598 247.329C161.519 247.25 161.457 247.156 161.414 247.052C161.371 246.949 161.35 246.838 161.35 246.726ZM186.347 258.668C186.347 258.779 186.326 258.888 186.284 258.991C186.242 259.094 186.18 259.187 186.101 259.266C186.023 259.345 185.93 259.408 185.827 259.45C185.725 259.493 185.615 259.515 185.504 259.515H171.714C171.603 259.515 171.493 259.493 171.39 259.45C171.287 259.408 171.194 259.345 171.116 259.266C171.037 259.187 170.976 259.094 170.934 258.991C170.891 258.888 170.87 258.779 170.87 258.668V251.829C170.87 251.605 170.959 251.39 171.117 251.232C171.275 251.074 171.49 250.985 171.714 250.985H185.5C185.724 250.985 185.938 251.074 186.097 251.232C186.255 251.39 186.344 251.605 186.344 251.829L186.347 258.668ZM194.999 246.726C195 246.838 194.978 246.949 194.935 247.053C194.892 247.157 194.829 247.251 194.75 247.33C194.67 247.41 194.576 247.473 194.472 247.516C194.369 247.558 194.258 247.58 194.145 247.58H180.369C180.258 247.579 180.147 247.557 180.044 247.513C179.941 247.47 179.847 247.407 179.769 247.328C179.69 247.249 179.628 247.155 179.586 247.051C179.543 246.948 179.522 246.837 179.522 246.726V239.894C179.522 239.782 179.544 239.672 179.587 239.57C179.629 239.467 179.692 239.374 179.77 239.296C179.849 239.217 179.942 239.155 180.045 239.113C180.148 239.071 180.258 239.049 180.369 239.05H194.142C194.253 239.049 194.364 239.07 194.467 239.112C194.57 239.154 194.665 239.216 194.744 239.294C194.823 239.373 194.886 239.466 194.929 239.569C194.973 239.672 194.995 239.782 194.996 239.894L194.999 246.726ZM213.168 246.726C213.169 246.837 213.147 246.948 213.106 247.051C213.064 247.154 213.002 247.249 212.923 247.328C212.845 247.407 212.751 247.47 212.649 247.513C212.546 247.557 212.436 247.579 212.324 247.58H198.545C198.432 247.58 198.321 247.558 198.217 247.516C198.113 247.473 198.019 247.41 197.94 247.33C197.86 247.251 197.797 247.157 197.755 247.053C197.712 246.949 197.69 246.838 197.691 246.726V239.894C197.691 239.782 197.714 239.672 197.757 239.569C197.8 239.466 197.863 239.373 197.942 239.294C198.022 239.216 198.116 239.154 198.219 239.112C198.322 239.07 198.433 239.049 198.545 239.05H212.321C212.544 239.05 212.759 239.139 212.917 239.297C213.075 239.455 213.164 239.67 213.164 239.894L213.168 246.726ZM225.922 221.074C225.924 222.133 225.718 223.182 225.315 224.161C224.912 225.14 224.319 226.03 223.571 226.78C222.823 227.53 221.935 228.125 220.957 228.53C219.979 228.936 218.93 229.145 217.872 229.145H150.616C148.475 229.144 146.423 228.294 144.91 226.78C143.396 225.267 142.546 223.214 142.545 221.074V192.616C142.545 190.475 143.395 188.422 144.909 186.909C146.422 185.395 148.475 184.545 150.616 184.545H217.858C218.917 184.545 219.965 184.754 220.943 185.159C221.921 185.565 222.809 186.16 223.557 186.91C224.305 187.66 224.898 188.549 225.301 189.529C225.704 190.508 225.91 191.557 225.908 192.616L225.922 221.074ZM224.742 175.119C224.372 175.494 223.93 175.792 223.443 175.994C222.957 176.197 222.434 176.3 221.907 176.299H147.193C146.128 176.298 145.108 175.874 144.355 175.122C143.602 174.369 143.179 173.348 143.178 172.284C143.182 171.22 143.606 170.202 144.358 169.449C145.11 168.697 146.129 168.273 147.193 168.27H221.9C222.428 168.269 222.95 168.373 223.437 168.574C223.924 168.776 224.367 169.071 224.74 169.444C225.113 169.817 225.409 170.26 225.61 170.747C225.812 171.234 225.915 171.757 225.915 172.284C225.917 172.811 225.814 173.333 225.612 173.82C225.41 174.307 225.113 174.748 224.739 175.119H224.742ZM131.348 310.716V301.669V310.716Z" stroke="#CCDDE2" stroke-width="3.7" stroke-miterlimit="10"/>
<path d="M157.797 247.58H144.021C143.91 247.579 143.799 247.557 143.696 247.513C143.594 247.47 143.5 247.407 143.422 247.328C143.344 247.248 143.282 247.154 143.24 247.051C143.198 246.948 143.177 246.837 143.178 246.726V239.894C143.178 239.67 143.267 239.455 143.425 239.297C143.583 239.139 143.798 239.05 144.021 239.05H157.797C157.909 239.049 158.02 239.07 158.123 239.112C158.226 239.154 158.32 239.216 158.4 239.294C158.479 239.373 158.542 239.466 158.585 239.569C158.628 239.672 158.651 239.782 158.651 239.894V246.726C158.652 246.838 158.63 246.949 158.587 247.053C158.545 247.157 158.482 247.251 158.402 247.33C158.323 247.41 158.228 247.473 158.125 247.516C158.021 247.558 157.91 247.58 157.797 247.58Z" stroke="#CCDDE2" stroke-width="3.7" stroke-miterlimit="10"/>
<path d="M153.608 250.986H167.384C167.609 250.986 167.824 251.074 167.984 251.232C168.144 251.39 168.235 251.605 168.238 251.829V258.668C168.236 258.893 168.145 259.109 167.985 259.268C167.825 259.426 167.609 259.515 167.384 259.515H153.608C153.383 259.515 153.167 259.426 153.007 259.268C152.847 259.109 152.756 258.893 152.754 258.668V251.829C152.757 251.605 152.848 251.39 153.008 251.232C153.168 251.074 153.383 250.986 153.608 250.986Z" stroke="#CCDDE2" stroke-width="3.7" stroke-miterlimit="10"/>
<path d="M176.831 239.894V246.726C176.83 246.952 176.739 247.168 176.579 247.328C176.419 247.489 176.203 247.579 175.977 247.58H162.201C162.088 247.58 161.977 247.558 161.873 247.516C161.769 247.473 161.675 247.41 161.596 247.33C161.516 247.251 161.453 247.157 161.411 247.053C161.368 246.949 161.346 246.838 161.347 246.726V239.894C161.347 239.782 161.37 239.672 161.413 239.569C161.456 239.466 161.519 239.373 161.598 239.294C161.678 239.216 161.772 239.154 161.875 239.112C161.978 239.07 162.089 239.049 162.201 239.05H175.977C176.201 239.05 176.417 239.139 176.577 239.296C176.737 239.454 176.828 239.669 176.831 239.894Z" stroke="#CCDDE2" stroke-width="3.7" stroke-miterlimit="10"/>
<path d="M185.5 250.986H171.714C171.248 250.986 170.87 251.364 170.87 251.829V258.672C170.87 259.138 171.248 259.515 171.714 259.515H185.5C185.966 259.515 186.344 259.138 186.344 258.672V251.829C186.344 251.364 185.966 250.986 185.5 250.986Z" stroke="#CCDDE2" stroke-width="3.7" stroke-miterlimit="10"/>
<path d="M180.369 247.58C180.257 247.579 180.147 247.557 180.044 247.513C179.941 247.47 179.847 247.407 179.769 247.328C179.69 247.249 179.628 247.155 179.585 247.051C179.543 246.948 179.522 246.837 179.522 246.726V239.894C179.522 239.783 179.544 239.673 179.586 239.57C179.629 239.467 179.692 239.374 179.77 239.296C179.849 239.217 179.942 239.155 180.045 239.113C180.148 239.071 180.258 239.05 180.369 239.05H194.141C194.253 239.049 194.364 239.07 194.467 239.112C194.57 239.154 194.664 239.216 194.744 239.294C194.823 239.373 194.886 239.466 194.929 239.569C194.972 239.672 194.995 239.782 194.995 239.894V246.726C194.996 246.838 194.974 246.949 194.931 247.053C194.889 247.157 194.826 247.251 194.746 247.33C194.667 247.41 194.573 247.473 194.469 247.516C194.365 247.558 194.254 247.58 194.141 247.58H180.369Z" stroke="#CCDDE2" stroke-width="3.7" stroke-miterlimit="10"/>
<path d="M198.544 247.58C198.432 247.58 198.321 247.558 198.217 247.516C198.113 247.473 198.019 247.41 197.94 247.33C197.86 247.251 197.797 247.157 197.754 247.053C197.712 246.949 197.69 246.838 197.69 246.726V239.894C197.691 239.782 197.714 239.672 197.757 239.569C197.8 239.466 197.863 239.373 197.942 239.294C198.022 239.216 198.116 239.154 198.219 239.112C198.322 239.07 198.433 239.049 198.544 239.05H212.32C212.544 239.05 212.759 239.139 212.917 239.297C213.075 239.455 213.164 239.67 213.164 239.894V246.726C213.165 246.837 213.144 246.948 213.102 247.051C213.06 247.154 212.998 247.248 212.92 247.328C212.841 247.407 212.748 247.47 212.645 247.513C212.542 247.557 212.432 247.579 212.32 247.58H198.544Z" stroke="#CCDDE2" stroke-width="3.7" stroke-miterlimit="10"/>
<path d="M219.184 277.498V330.814H149.912V277.498C149.918 275.361 150.77 273.314 152.283 271.804C153.796 270.296 155.846 269.448 157.983 269.448H211.113C213.25 269.447 215.301 270.294 216.814 271.804C218.327 273.313 219.18 275.361 219.184 277.498Z" stroke="#CCDDE2" stroke-width="3.7" stroke-miterlimit="10"/>
<path d="M143.178 172.284C143.182 171.22 143.606 170.201 144.358 169.449C145.11 168.697 146.129 168.273 147.193 168.27H221.9C222.428 168.269 222.95 168.372 223.437 168.574C223.924 168.776 224.367 169.071 224.74 169.444C225.113 169.817 225.409 170.26 225.61 170.747C225.812 171.234 225.915 171.757 225.915 172.284C225.911 173.347 225.487 174.367 224.735 175.118C223.983 175.87 222.964 176.295 221.9 176.299H147.193C146.128 176.297 145.108 175.874 144.355 175.121C143.602 174.369 143.179 173.348 143.178 172.284Z" stroke="#CCDDE2" stroke-width="3.7" stroke-miterlimit="10"/>
<path d="M180.208 196.595V217.13C180.209 217.876 180.063 218.615 179.778 219.305C179.493 219.995 179.075 220.622 178.548 221.15C178.021 221.678 177.395 222.097 176.705 222.383C176.016 222.669 175.277 222.817 174.531 222.817H154.619C153.113 222.816 151.668 222.215 150.603 221.149C149.539 220.082 148.941 218.637 148.942 217.13V196.595C148.942 195.85 149.088 195.111 149.374 194.421C149.658 193.732 150.076 193.106 150.604 192.578C151.131 192.05 151.757 191.631 152.446 191.345C153.135 191.059 153.874 190.912 154.619 190.911H174.531C175.277 190.911 176.016 191.058 176.705 191.344C177.394 191.63 178.02 192.049 178.547 192.577C179.075 193.104 179.493 193.731 179.778 194.421C180.063 195.11 180.209 195.849 180.208 196.595Z" stroke="#CCDDE2" stroke-width="3.7" stroke-miterlimit="10"/>
<path d="M219.307 196.57V217.157C219.308 217.903 219.161 218.643 218.876 219.333C218.592 220.022 218.174 220.649 217.646 221.177C217.119 221.706 216.493 222.124 215.804 222.411C215.115 222.697 214.376 222.844 213.63 222.845H193.68C192.933 222.844 192.194 222.697 191.505 222.411C190.815 222.125 190.189 221.706 189.662 221.177C189.134 220.649 188.715 220.022 188.431 219.333C188.145 218.643 187.999 217.904 187.999 217.157V196.57C187.999 195.824 188.145 195.085 188.431 194.395C188.715 193.705 189.134 193.078 189.662 192.55C190.189 192.022 190.815 191.603 191.505 191.317C192.194 191.031 192.933 190.883 193.68 190.883H213.63C214.376 190.883 215.115 191.031 215.804 191.317C216.493 191.603 217.119 192.022 217.646 192.55C218.174 193.078 218.592 193.705 218.876 194.395C219.161 195.085 219.308 195.824 219.307 196.57Z" stroke="#CCDDE2" stroke-width="3.7" stroke-miterlimit="10"/>
<path d="M217.857 184.545H150.615C148.475 184.545 146.422 185.395 144.908 186.909C143.395 188.422 142.544 190.475 142.544 192.616V221.074C142.545 223.214 143.396 225.266 144.909 226.78C146.423 228.293 148.475 229.144 150.615 229.145H217.857C218.917 229.145 219.965 228.936 220.943 228.53C221.921 228.124 222.809 227.53 223.557 226.78C224.305 226.03 224.897 225.14 225.301 224.161C225.704 223.182 225.91 222.133 225.907 221.074V192.616C225.91 191.557 225.704 190.508 225.301 189.528C224.897 188.549 224.305 187.659 223.557 186.91C222.809 186.16 221.921 185.565 220.943 185.159C219.965 184.753 218.917 184.545 217.857 184.545ZM180.208 217.13C180.209 217.876 180.063 218.615 179.778 219.305C179.493 219.994 179.075 220.621 178.548 221.149C178.021 221.678 177.395 222.097 176.705 222.383C176.016 222.669 175.277 222.816 174.531 222.817H154.619C153.113 222.815 151.668 222.215 150.604 221.148C149.539 220.082 148.941 218.636 148.942 217.13V196.595C148.942 195.849 149.088 195.11 149.374 194.421C149.659 193.731 150.076 193.105 150.604 192.577C151.131 192.049 151.757 191.631 152.446 191.345C153.135 191.059 153.874 190.912 154.619 190.911H174.531C175.277 190.911 176.016 191.058 176.705 191.344C177.394 191.629 178.02 192.048 178.548 192.576C179.075 193.104 179.493 193.731 179.778 194.42C180.063 195.11 180.209 195.849 180.208 196.595V217.13ZM219.306 217.158C219.308 217.904 219.161 218.643 218.876 219.333C218.591 220.022 218.173 220.649 217.646 221.177C217.119 221.706 216.493 222.125 215.804 222.411C215.114 222.697 214.376 222.844 213.629 222.845H193.679C192.933 222.844 192.194 222.697 191.505 222.411C190.815 222.125 190.189 221.706 189.661 221.178C189.134 220.65 188.715 220.023 188.43 219.333C188.145 218.643 187.999 217.904 187.999 217.158V196.571C187.999 195.824 188.145 195.085 188.43 194.395C188.715 193.705 189.134 193.078 189.661 192.55C190.189 192.022 190.815 191.603 191.505 191.317C192.194 191.031 192.933 190.884 193.679 190.883H213.629C214.376 190.884 215.114 191.031 215.804 191.317C216.493 191.603 217.119 192.022 217.646 192.551C218.173 193.079 218.591 193.706 218.876 194.395C219.161 195.085 219.308 195.824 219.306 196.571V217.158Z" stroke="#CCDDE2" stroke-width="3.7" stroke-miterlimit="10"/>
<path d="M180.208 196.595V217.13C180.209 217.876 180.063 218.615 179.778 219.305C179.493 219.995 179.075 220.622 178.548 221.15C178.021 221.678 177.395 222.097 176.705 222.383C176.016 222.669 175.277 222.817 174.531 222.817H154.619C153.113 222.816 151.668 222.215 150.603 221.149C149.539 220.082 148.941 218.637 148.942 217.13V196.595C148.942 195.85 149.088 195.111 149.374 194.421C149.658 193.732 150.076 193.106 150.604 192.578C151.131 192.05 151.757 191.631 152.446 191.345C153.135 191.059 153.874 190.912 154.619 190.911H174.531C175.277 190.911 176.016 191.058 176.705 191.344C177.394 191.63 178.02 192.049 178.547 192.577C179.075 193.104 179.493 193.731 179.778 194.421C180.063 195.11 180.209 195.849 180.208 196.595Z" stroke="#CCDDE2" stroke-width="3.7" stroke-miterlimit="10"/>
<path d="M219.307 196.57V217.157C219.308 217.903 219.161 218.643 218.876 219.333C218.592 220.022 218.174 220.649 217.646 221.177C217.119 221.706 216.493 222.124 215.804 222.411C215.115 222.697 214.376 222.844 213.63 222.845H193.68C192.933 222.844 192.194 222.697 191.505 222.411C190.815 222.125 190.189 221.706 189.662 221.177C189.134 220.649 188.715 220.022 188.431 219.333C188.145 218.643 187.999 217.904 187.999 217.157V196.57C187.999 195.824 188.145 195.085 188.431 194.395C188.715 193.705 189.134 193.078 189.662 192.55C190.189 192.022 190.815 191.603 191.505 191.317C192.194 191.031 192.933 190.883 193.68 190.883H213.63C214.376 190.883 215.115 191.031 215.804 191.317C216.493 191.603 217.119 192.022 217.646 192.55C218.174 193.078 218.592 193.705 218.876 194.395C219.161 195.085 219.308 195.824 219.307 196.57Z" stroke="#CCDDE2" stroke-width="3.7" stroke-miterlimit="10"/>
<path d="M219.307 196.57V217.157C219.308 217.903 219.161 218.643 218.876 219.333C218.592 220.022 218.174 220.649 217.646 221.177C217.119 221.706 216.493 222.124 215.804 222.411C215.115 222.697 214.376 222.844 213.63 222.845H193.68C192.933 222.844 192.194 222.697 191.505 222.411C190.815 222.125 190.189 221.706 189.662 221.177C189.134 220.649 188.715 220.022 188.431 219.333C188.145 218.643 187.999 217.904 187.999 217.157V196.57C187.999 195.824 188.145 195.085 188.431 194.395C188.715 193.705 189.134 193.078 189.662 192.55C190.189 192.022 190.815 191.603 191.505 191.317C192.194 191.031 192.933 190.883 193.68 190.883H213.63C214.376 190.883 215.115 191.031 215.804 191.317C216.493 191.603 217.119 192.022 217.646 192.55C218.174 193.078 218.592 193.705 218.876 194.395C219.161 195.085 219.308 195.824 219.307 196.57Z" stroke="#CCDDE2" stroke-width="3.7" stroke-miterlimit="10"/>
<path d="M180.208 196.595V217.13C180.209 217.876 180.063 218.615 179.778 219.305C179.493 219.995 179.075 220.622 178.548 221.15C178.021 221.678 177.395 222.097 176.705 222.383C176.016 222.669 175.277 222.817 174.531 222.817H154.619C153.113 222.816 151.668 222.215 150.603 221.149C149.539 220.082 148.941 218.637 148.942 217.13V196.595C148.942 195.85 149.088 195.111 149.374 194.421C149.658 193.732 150.076 193.106 150.604 192.578C151.131 192.05 151.757 191.631 152.446 191.345C153.135 191.059 153.874 190.912 154.619 190.911H174.531C175.277 190.911 176.016 191.058 176.705 191.344C177.394 191.63 178.02 192.049 178.547 192.577C179.075 193.104 179.493 193.731 179.778 194.421C180.063 195.11 180.209 195.849 180.208 196.595Z" stroke="#CCDDE2" stroke-width="3.7" stroke-miterlimit="10"/>
<path d="M219.184 277.498V330.814H149.912V277.498C149.918 275.361 150.77 273.314 152.283 271.804C153.796 270.296 155.846 269.448 157.983 269.448H211.113C213.25 269.447 215.301 270.294 216.814 271.804C218.327 273.313 219.18 275.361 219.184 277.498Z" stroke="#CCDDE2" stroke-width="3.7" stroke-miterlimit="10"/>
<path d="M158.651 239.894V246.726C158.652 246.838 158.63 246.949 158.587 247.053C158.545 247.157 158.482 247.251 158.402 247.33C158.323 247.41 158.228 247.473 158.125 247.516C158.021 247.558 157.91 247.58 157.797 247.58H144.021C143.91 247.579 143.799 247.557 143.696 247.513C143.594 247.47 143.5 247.407 143.422 247.328C143.344 247.248 143.282 247.154 143.24 247.051C143.198 246.948 143.177 246.837 143.178 246.726V239.894C143.178 239.67 143.267 239.455 143.425 239.297C143.583 239.139 143.798 239.05 144.021 239.05H157.797C157.909 239.049 158.02 239.07 158.123 239.112C158.226 239.154 158.32 239.216 158.4 239.294C158.479 239.373 158.542 239.466 158.585 239.569C158.628 239.672 158.651 239.782 158.651 239.894Z" stroke="#CCDDE2" stroke-width="3.7" stroke-miterlimit="10"/>
<path d="M176.831 239.894V246.726C176.83 246.952 176.739 247.168 176.579 247.328C176.419 247.489 176.203 247.579 175.977 247.58H162.201C162.088 247.58 161.977 247.558 161.873 247.516C161.769 247.473 161.675 247.41 161.596 247.33C161.516 247.251 161.453 247.157 161.411 247.053C161.368 246.949 161.346 246.838 161.347 246.726V239.894C161.347 239.782 161.37 239.672 161.413 239.569C161.456 239.466 161.519 239.373 161.598 239.294C161.678 239.216 161.772 239.154 161.875 239.112C161.978 239.07 162.089 239.049 162.201 239.05H175.977C176.201 239.05 176.417 239.139 176.577 239.296C176.737 239.454 176.828 239.669 176.831 239.894Z" stroke="#CCDDE2" stroke-width="3.7" stroke-miterlimit="10"/>
<path d="M194.995 239.894V246.726C194.996 246.838 194.974 246.949 194.931 247.053C194.889 247.157 194.826 247.251 194.746 247.33C194.667 247.41 194.573 247.473 194.469 247.516C194.365 247.558 194.254 247.58 194.141 247.58H180.369C180.257 247.579 180.147 247.557 180.044 247.513C179.941 247.47 179.847 247.407 179.769 247.328C179.69 247.249 179.628 247.155 179.585 247.051C179.543 246.948 179.522 246.837 179.522 246.726V239.894C179.522 239.783 179.544 239.673 179.586 239.57C179.629 239.467 179.692 239.374 179.77 239.296C179.849 239.217 179.942 239.155 180.045 239.113C180.148 239.071 180.258 239.05 180.369 239.05H194.141C194.253 239.049 194.364 239.07 194.467 239.112C194.57 239.154 194.664 239.216 194.744 239.294C194.823 239.373 194.886 239.466 194.929 239.569C194.972 239.672 194.995 239.782 194.995 239.894Z" stroke="#CCDDE2" stroke-width="3.7" stroke-miterlimit="10"/>
<path d="M213.15 239.894V246.726C213.151 246.837 213.13 246.948 213.088 247.051C213.046 247.154 212.984 247.248 212.906 247.328C212.827 247.407 212.734 247.47 212.631 247.513C212.528 247.557 212.418 247.579 212.306 247.58H198.544C198.432 247.58 198.321 247.558 198.217 247.516C198.113 247.473 198.019 247.41 197.94 247.33C197.86 247.251 197.797 247.157 197.754 247.053C197.712 246.949 197.69 246.838 197.69 246.726V239.894C197.691 239.782 197.714 239.672 197.757 239.569C197.8 239.466 197.863 239.373 197.942 239.294C198.022 239.216 198.116 239.154 198.219 239.112C198.322 239.07 198.433 239.049 198.544 239.05H212.32C212.542 239.054 212.753 239.144 212.908 239.302C213.063 239.46 213.15 239.672 213.15 239.894Z" stroke="#CCDDE2" stroke-width="3.7" stroke-miterlimit="10"/>
<path d="M168.238 251.829V258.668C168.236 258.893 168.145 259.109 167.985 259.268C167.825 259.426 167.609 259.515 167.384 259.515H153.608C153.383 259.515 153.167 259.426 153.007 259.268C152.847 259.109 152.756 258.893 152.754 258.668V251.829C152.757 251.605 152.848 251.39 153.008 251.232C153.168 251.074 153.383 250.986 153.608 250.986H167.384C167.609 250.986 167.824 251.074 167.984 251.232C168.144 251.39 168.235 251.605 168.238 251.829Z" stroke="#CCDDE2" stroke-width="3.7" stroke-miterlimit="10"/>
<path d="M185.5 250.986H171.714C171.248 250.986 170.87 251.364 170.87 251.829V258.672C170.87 259.138 171.248 259.515 171.714 259.515H185.5C185.966 259.515 186.344 259.138 186.344 258.672V251.829C186.344 251.364 185.966 250.986 185.5 250.986Z" stroke="#CCDDE2" stroke-width="3.7" stroke-miterlimit="10"/>
<path d="M225.918 172.284C225.915 173.348 225.49 174.368 224.737 175.12C223.984 175.872 222.965 176.296 221.9 176.299H147.193C146.128 176.297 145.108 175.874 144.355 175.121C143.602 174.369 143.179 173.348 143.178 172.284C143.182 171.22 143.606 170.201 144.358 169.449C145.11 168.697 146.129 168.273 147.193 168.27H221.9C222.428 168.268 222.951 168.372 223.438 168.573C223.926 168.774 224.369 169.07 224.742 169.443C225.115 169.816 225.411 170.259 225.613 170.746C225.815 171.234 225.919 171.756 225.918 172.284Z" stroke="#CCDDE2" stroke-width="3.7" stroke-miterlimit="10"/>
<path d="M210.896 275.614H157.994C156.739 275.614 155.722 276.631 155.722 277.886V277.973C155.722 279.228 156.739 280.245 157.994 280.245H210.896C212.151 280.245 213.168 279.228 213.168 277.973V277.886C213.168 276.631 212.151 275.614 210.896 275.614Z" stroke="#CCDDE2" stroke-width="3.7" stroke-miterlimit="10"/>
<path d="M210.896 285.17H157.994C156.739 285.17 155.722 286.186 155.722 287.441V287.529C155.722 288.783 156.739 289.8 157.994 289.8H210.896C212.151 289.8 213.168 288.783 213.168 287.529V287.441C213.168 286.186 212.151 285.17 210.896 285.17Z" stroke="#CCDDE2" stroke-width="3.7" stroke-miterlimit="10"/>
<path d="M210.896 294.725H157.994C156.739 294.725 155.722 295.742 155.722 296.996V297.084C155.722 298.338 156.739 299.355 157.994 299.355H210.896C212.151 299.355 213.168 298.338 213.168 297.084V296.996C213.168 295.742 212.151 294.725 210.896 294.725Z" stroke="#CCDDE2" stroke-width="3.7" stroke-miterlimit="10"/>
<path d="M210.896 304.283H157.994C156.739 304.283 155.722 305.3 155.722 306.554V306.642C155.722 307.896 156.739 308.913 157.994 308.913H210.896C212.151 308.913 213.168 307.896 213.168 306.642V306.554C213.168 305.3 212.151 304.283 210.896 304.283Z" stroke="#CCDDE2" stroke-width="3.7" stroke-miterlimit="10"/>
<path d="M210.896 313.838H157.994C156.739 313.838 155.722 314.855 155.722 316.11V316.197C155.722 317.452 156.739 318.469 157.994 318.469H210.896C212.151 318.469 213.168 317.452 213.168 316.197V316.11C213.168 314.855 212.151 313.838 210.896 313.838Z" stroke="#CCDDE2" stroke-width="3.7" stroke-miterlimit="10"/>
<path d="M121.579 141.4H256.707C258.826 141.4 260.857 142.242 262.355 143.74C263.853 145.237 264.694 147.269 264.694 149.387V157.087H113.592V149.387C113.592 147.269 114.434 145.237 115.932 143.74C117.429 142.242 119.461 141.4 121.579 141.4Z" stroke="#CCDDE2" stroke-width="3.7" stroke-miterlimit="10"/>
<path d="M250.271 266.108H264.799V279.328H278.586V294.511H292.012V306.4H305.224V316.862H332.5V330.806H250.271V266.108Z" stroke="#CCDDE2" stroke-width="3.7" stroke-miterlimit="10"/>
<path d="M253.012 236.838H264.894H265.255L278.607 250.194L292.068 263.652L305.228 276.812L311.451 283.035" stroke="#CCDDE2" stroke-width="3.7" stroke-miterlimit="10"/>
<path d="M264.894 279.328V236.838" stroke="#CCDDE2" stroke-width="3.7" stroke-miterlimit="10"/>
<path d="M305.228 306.405V276.812" stroke="#CCDDE2" stroke-width="3.7" stroke-miterlimit="10"/>
<path d="M278.607 285.277V250.19" stroke="#CCDDE2" stroke-width="3.7" stroke-miterlimit="10"/>
<path d="M292.012 263.651V295.673" stroke="#CCDDE2" stroke-width="3.7" stroke-miterlimit="10"/>
<path d="M131.295 301.745V310.716" stroke="#CCDDE2" stroke-width="3.7" stroke-miterlimit="10"/>
<path d="M118.002 310.716V305.2C118.566 306.817 120.081 308.228 122.034 308.924C121.401 304.304 120.162 297.024 118.002 290.511" stroke="#CCDDE2" stroke-width="3.7" stroke-miterlimit="10"/>
<path d="M131.295 283.78V206.85H118.002V280.322" stroke="#CCDDE2" stroke-width="3.7" stroke-miterlimit="10"/>
<path d="M118.002 305.207V310.716" stroke="#CCDDE2" stroke-width="3.7" stroke-miterlimit="10"/>
<path d="M118.002 280.322V206.85H35.2554V330.813H116.928H118.002" stroke="#CCDDE2" stroke-width="3.7" stroke-miterlimit="10"/>
<path d="M60.4238 225.005V273.441C60.4238 277.812 63.9669 281.355 68.3373 281.355H86.8873C91.2578 281.355 94.8008 277.812 94.8008 273.441V225.005C94.8008 220.634 91.2578 217.091 86.8873 217.091H68.3373C63.9669 217.091 60.4238 220.634 60.4238 225.005Z" stroke="#CCDDE2" stroke-width="3.7" stroke-miterlimit="10"/>
<path d="M65.3135 227.763V240.755C65.3135 243.834 67.8097 246.331 70.889 246.331H84.371C87.4503 246.331 89.9465 243.834 89.9465 240.755V227.763C89.9465 224.684 87.4503 222.188 84.371 222.188H70.889C67.8097 222.188 65.3135 224.684 65.3135 227.763Z" stroke="#CCDDE2" stroke-width="3.7" stroke-miterlimit="10"/>
<path d="M65.3345 257.894V270.848C65.3345 273.927 67.8307 276.423 70.91 276.423H84.35C87.4293 276.423 89.9255 273.927 89.9255 270.848V257.894C89.9255 254.815 87.4293 252.319 84.35 252.319H70.91C67.8307 252.319 65.3345 254.815 65.3345 257.894Z" stroke="#CCDDE2" stroke-width="3.7" stroke-miterlimit="10"/>
<path d="M61.7225 288.687H47.9185C47.4565 288.687 47.082 289.062 47.082 289.524V296.384C47.082 296.846 47.4565 297.22 47.9185 297.22H61.7225C62.1845 297.22 62.559 296.846 62.559 296.384V289.524C62.559 289.062 62.1845 288.687 61.7225 288.687Z" stroke="#CCDDE2" stroke-width="3.7" stroke-miterlimit="10"/>
<path d="M79.8944 288.687H66.0904C65.6284 288.687 65.2539 289.062 65.2539 289.524V296.384C65.2539 296.846 65.6284 297.22 66.0904 297.22H79.8944C80.3564 297.22 80.7309 296.846 80.7309 296.384V289.524C80.7309 289.062 80.3564 288.687 79.8944 288.687Z" stroke="#CCDDE2" stroke-width="3.7" stroke-miterlimit="10"/>
<path d="M98.0663 288.687H84.2623C83.8003 288.687 83.4258 289.062 83.4258 289.524V296.384C83.4258 296.846 83.8003 297.22 84.2623 297.22H98.0663C98.5283 297.22 98.9028 296.846 98.9028 296.384V289.524C98.9028 289.062 98.5283 288.687 98.0663 288.687Z" stroke="#CCDDE2" stroke-width="3.7" stroke-miterlimit="10"/>
<path d="M71.3055 300.625H57.5015C57.0395 300.625 56.665 301 56.665 301.462V308.322C56.665 308.784 57.0395 309.158 57.5015 309.158H71.3055C71.7675 309.158 72.142 308.784 72.142 308.322V301.462C72.142 301 71.7675 300.625 71.3055 300.625Z" stroke="#CCDDE2" stroke-width="3.7" stroke-miterlimit="10"/>
<path d="M89.4144 300.625H75.6104C75.1484 300.625 74.7739 301 74.7739 301.462V308.322C74.7739 308.784 75.1484 309.158 75.6104 309.158H89.4144C89.8764 309.158 90.2509 308.784 90.2509 308.322V301.462C90.2509 301 89.8764 300.625 89.4144 300.625Z" stroke="#CCDDE2" stroke-width="3.7" stroke-miterlimit="10"/>
<path d="M25.641 191.04H131.341V206.716H17.5V199.184C17.5009 197.025 18.3588 194.955 19.8852 193.428C21.4117 191.9 23.4819 191.042 25.641 191.04Z" stroke="#CCDDE2" stroke-width="3.7" stroke-miterlimit="10"/>
<path d="M124.775 294.022C125.5 293.434 126.34 292.891 126.921 292.244C128.552 290.42 127.925 288.089 128.972 286.087C130.246 283.637 134.25 281.94 138.187 282.164C137.814 283.316 137.558 284.503 137.424 285.706C137.309 286.777 137.589 287.967 137.281 289.006C136.78 290.672 134.106 291.684 133.781 293.395C133.494 294.907 135.265 296.321 134.971 297.861C134.659 299.513 132.122 300.427 131.187 301.886C130.424 303.076 130.785 304.434 130.389 305.698C129.91 307.224 128.251 308.571 126.077 309.198L125.86 309.261C125.062 308.576 124.377 307.769 123.83 306.87" stroke="#CCDDE2" stroke-width="3.7" stroke-miterlimit="10"/>
<path d="M135.8 284.081C129.93 290.07 127.169 302.694 126.094 309.204C126.007 309.754 125.926 310.254 125.86 310.713" stroke="#CCDDE2" stroke-width="3.7" stroke-miterlimit="10"/>
<path d="M136.325 314.381L133.623 329.48C133.548 329.903 133.326 330.287 132.997 330.564C132.667 330.84 132.251 330.992 131.82 330.992H117.705C117.271 330.992 116.85 330.837 116.519 330.556C116.189 330.274 115.969 329.884 115.899 329.455L113.4 314.381H136.325Z" stroke="#CCDDE2" stroke-width="3.7" stroke-miterlimit="10"/>
<path d="M138.891 312.697C138.853 313.156 138.644 313.583 138.305 313.895C137.967 314.207 137.524 314.38 137.064 314.38H112.7C112.244 314.381 111.804 314.211 111.467 313.904C111.13 313.597 110.919 313.175 110.877 312.721C110.852 312.467 110.881 312.211 110.962 311.968C111.042 311.726 111.173 311.503 111.344 311.314C111.516 311.125 111.725 310.974 111.959 310.87C112.192 310.766 112.445 310.713 112.7 310.712H137.05C137.304 310.711 137.556 310.762 137.79 310.863C138.024 310.964 138.234 311.113 138.407 311.299C138.58 311.486 138.713 311.706 138.796 311.947C138.879 312.188 138.912 312.443 138.891 312.697Z" stroke="#CCDDE2" stroke-width="3.7" stroke-miterlimit="10"/>
<path d="M118.002 305.2C117.961 305.086 117.926 304.969 117.897 304.85C117.509 303.387 117.855 301.802 117.124 300.43C116.224 298.739 113.795 297.682 113.487 295.764C113.214 293.986 114.915 292.341 114.632 290.588C114.324 288.61 111.755 287.438 111.268 285.502C110.978 284.305 111.244 282.923 111.139 281.68C111.008 280.294 110.76 278.922 110.397 277.578C113.302 277.379 116.242 278.495 118.002 280.308C118.53 280.832 118.954 281.451 119.252 282.132C120.256 284.445 119.658 287.147 121.226 289.261C122.08 290.406 123.497 291.26 124.225 292.457C124.469 292.848 124.64 293.279 124.729 293.731C124.733 293.764 124.739 293.797 124.747 293.829C124.764 293.892 124.771 293.951 124.782 294.004C125.044 295.775 124.369 297.693 124.586 299.516C124.782 301.028 125.601 302.544 125.132 304.021C124.803 305.014 124.367 305.968 123.83 306.866C123.395 307.64 122.859 308.354 122.237 308.987C122.167 308.97 122.104 308.942 122.034 308.917C121.401 304.297 120.162 297.017 118.002 290.504" stroke="#CCDDE2" stroke-width="3.7" stroke-miterlimit="10"/>
<path d="M122.265 310.708C122.202 310.169 122.122 309.581 122.034 308.93C121.401 304.31 120.162 297.03 118.002 290.517C116.641 286.369 114.905 282.516 112.714 279.821" stroke="#CCDDE2" stroke-width="3.7" stroke-miterlimit="10"/>
<path d="M121.226 289.271C121.226 289.271 121.615 283.244 124.866 281.41C128.118 279.576 128.048 289.852 128.048 289.852" stroke="#CCDDE2" stroke-width="3.7" stroke-miterlimit="10"/>
<path d="M124.775 294.021C124.408 291.734 124.579 289.392 125.276 287.182" stroke="#CCDDE2" stroke-width="3.7" stroke-miterlimit="10"/>
<path d="M173.747 181.262C174.199 181.751 174.459 182.386 174.482 183.052C174.504 183.718 174.287 184.369 173.87 184.888L165.781 198.8L165.498 201.6L162.981 226.888L158.984 267.05C158.96 267.306 158.907 267.561 158.862 267.817C158.837 268.02 158.809 268.223 158.774 268.426C158.722 268.688 158.659 268.937 158.599 269.189C158.54 269.441 158.501 269.605 158.438 269.808C158.375 270.011 158.291 270.291 158.204 270.529L157.99 271.128C157.896 271.366 157.798 271.593 157.7 271.828C157.602 272.062 157.514 272.209 157.42 272.402C157.325 272.594 157.199 272.843 157.07 273.053C156.94 273.263 156.856 273.424 156.744 273.599C156.632 273.774 156.489 274.012 156.345 274.215C156.202 274.418 156.1 274.565 155.978 274.726C155.712 275.076 155.449 275.405 155.159 275.72C155.008 275.895 154.851 276.07 154.693 276.238C154.536 276.406 154.343 276.563 154.182 276.724C154.021 276.885 153.864 277.022 153.696 277.162C153.528 277.302 153.346 277.463 153.153 277.603C152.961 277.743 152.803 277.876 152.625 277.998C152.446 278.121 152.243 278.264 152.051 278.397C151.858 278.53 151.673 278.632 151.48 278.747C151.288 278.863 151.081 278.978 150.882 279.097C150.682 279.216 150.476 279.3 150.266 279.395C150.056 279.489 149.86 279.598 149.65 279.685C149.44 279.773 149.198 279.864 148.971 279.941C148.743 280.018 148.565 280.098 148.362 280.161C147.977 280.284 147.581 280.389 147.182 280.48C146.955 280.532 146.734 280.574 146.507 280.609C146.279 280.644 146.066 280.697 145.838 280.735H145.873L148.995 287.385L151.918 287.413C150.974 287.547 150.02 287.588 149.069 287.536L153.696 297.402C154.439 298.984 154.77 300.729 154.659 302.473C154.549 304.218 154 305.906 153.063 307.381C152.126 308.857 150.832 310.072 149.3 310.915C147.769 311.757 146.049 312.199 144.302 312.2H138.702C138.485 312.201 138.27 312.244 138.07 312.327C137.87 312.411 137.688 312.533 137.536 312.687C137.383 312.841 137.262 313.023 137.18 313.224C137.098 313.424 137.056 313.639 137.057 313.856V314.675C138.968 315.323 140.587 316.629 141.625 318.359C142.664 320.09 143.053 322.133 142.725 324.125C142.397 326.116 141.372 327.927 139.833 329.232C138.294 330.538 136.342 331.255 134.323 331.255C132.305 331.255 130.352 330.538 128.813 329.232C127.274 327.927 126.249 326.116 125.921 324.125C125.593 322.133 125.982 320.09 127.021 318.359C128.059 316.629 129.678 315.323 131.59 314.675V313.856C131.59 313.639 131.548 313.423 131.465 313.223C131.382 313.022 131.261 312.839 131.107 312.686C130.954 312.532 130.771 312.41 130.571 312.326C130.37 312.243 130.155 312.2 129.938 312.2H68.1451C67.9277 312.2 67.7128 312.243 67.5119 312.326C67.3114 312.41 67.129 312.532 66.9757 312.686C66.8221 312.839 66.7006 313.022 66.6177 313.223C66.5351 313.423 66.4927 313.639 66.4931 313.856V314.675C68.4076 315.323 70.0295 316.63 71.0697 318.363C72.1099 320.096 72.5008 322.142 72.1722 324.136C71.8439 326.13 70.8177 327.943 69.277 329.251C67.7359 330.559 65.7808 331.277 63.7596 331.277C61.7383 331.277 59.7832 330.559 58.2422 329.251C56.7015 327.943 55.6753 326.13 55.347 324.136C55.0183 322.142 55.4093 320.096 56.4495 318.363C57.4897 316.63 59.1116 315.323 61.0261 314.675V313.856C61.0261 313.417 60.8518 312.996 60.5413 312.685C60.2309 312.375 59.8095 312.2 59.3706 312.2H49.7666C49.3245 312.199 48.893 312.067 48.5262 311.821C48.159 311.575 47.8734 311.225 47.7051 310.817C47.5364 310.408 47.4926 309.959 47.5794 309.525C47.6659 309.092 47.879 308.694 48.1916 308.382C48.3981 308.175 48.6434 308.01 48.914 307.899C49.1842 307.787 49.474 307.73 49.7666 307.731H142.289C143.457 307.73 144.606 307.434 145.629 306.872C146.653 306.31 147.518 305.499 148.146 304.514C148.774 303.53 149.143 302.403 149.221 301.237C149.298 300.072 149.081 298.906 148.589 297.847L140.634 280.679L60.9001 274.232C60.8392 274.218 60.7769 274.209 60.7146 274.204C60.3646 274.169 60.0146 274.124 59.6646 274.064C59.547 274.049 59.4301 274.028 59.3146 274.001C58.9191 273.931 58.5411 273.844 58.1596 273.746L57.8341 273.651C57.4841 273.543 57.1341 273.431 56.7841 273.301L56.5111 273.196C56.1926 273.074 55.8776 272.934 55.5696 272.783C55.439 272.729 55.3116 272.667 55.1881 272.598C54.9081 272.458 54.6281 272.307 54.3551 272.139C52.0577 270.789 50.153 268.863 48.8296 266.55C47.5059 264.237 46.8094 261.619 46.8091 258.955V224.392C46.8098 220.706 48.1398 217.143 50.5548 214.357C52.9701 211.571 56.3088 209.75 59.9586 209.227L159.831 194.877L169.67 181.251C169.932 180.974 170.248 180.753 170.6 180.603C170.951 180.452 171.329 180.375 171.71 180.376C172.093 180.377 172.47 180.456 172.82 180.608C173.171 180.761 173.486 180.983 173.747 181.262Z" fill="white"/>
<path d="M287.409 299.096C280.952 285.698 267.659 261.782 249.403 247.338L247.625 215.246C248.972 215.18 250.305 214.945 251.594 214.546C253.057 214.308 254.044 213.937 254.394 213.391C254.663 212.937 254.851 212.44 254.95 211.921C255.243 211.282 255.383 210.583 255.356 209.881C255.356 209.531 255.328 209.114 255.321 208.691C255.451 205.163 255.108 200.091 254.695 194.071C254.271 185.391 253.799 176.921 253.788 176.844V176.827C253.788 176.704 253.841 169.099 254.194 160.702C254.649 165.466 256.623 168.448 259.21 170.278C262.01 172.585 265.681 173.211 268.831 173.211C271.134 173.206 273.427 172.904 275.653 172.312C279.401 171.143 282.485 169.277 284.774 166.617C286.874 164.594 288.624 162.015 289.103 158.844C289.54 156.279 289.401 153.649 288.697 151.144C288.079 148.23 286.427 145.639 284.046 143.85C283.486 143.376 282.869 142.977 282.208 142.66C281.099 142.016 279.954 141.393 278.869 140.679C277.405 139.655 276.13 138.384 275.1 136.923C274.422 135.675 274.009 134.3 273.885 132.884C273.996 130.52 273.963 128.15 273.787 125.79C273.787 125.296 273.735 124.803 273.682 124.32C273.549 122.629 273.427 121.46 273.427 121.46C271.991 117.762 269.537 114.545 266.35 112.182C266.154 112.024 265.954 111.874 265.758 111.723C262.961 109.681 259.712 108.343 256.287 107.824C255.972 107.779 255.654 107.744 255.346 107.719C254.335 107.554 253.314 107.463 252.29 107.446C250.982 106.898 249.859 105.988 249.053 104.821C248.345 103.534 247.843 102.144 247.565 100.702C247.17 98.3427 247.135 95.5112 246.939 92.2457C246.969 88.9665 246.116 85.7395 244.468 82.9042C244.461 82.8821 244.449 82.8618 244.433 82.8447C243.73 81.6631 242.877 80.5774 241.895 79.6142C239.071 76.2682 235.137 74.1752 230.244 75.3967C230.198 75.3967 230.153 75.4247 230.1 75.4422C229.897 75.4422 229.698 75.4422 229.495 75.4772C229.489 75.4754 229.483 75.4754 229.477 75.4772C227.563 75.6364 225.707 76.2199 224.045 77.1852C223.434 77.5397 222.856 77.9496 222.32 78.4102C219.082 81.2102 217.224 85.5397 216.72 89.8272C216.695 90.0022 216.685 90.1772 216.678 90.3522C216.111 91.0357 215.775 91.881 215.719 92.7672C215.664 93.6289 215.859 94.4885 216.282 95.2414C216.705 95.9942 217.338 96.6084 218.102 97.0092V97.2297C218.157 98.7435 218.488 100.235 219.079 101.629C220.073 103.988 221.851 106.673 224.861 107.103C224.969 107.103 225.074 107.121 225.169 107.138L227.37 111.065L227.899 113.344L229.124 118.625L229.544 118.387C230.03 118.114 230.513 117.845 231.014 117.579L231.332 118.16C229.452 119.235 227.656 120.451 225.96 121.8C221.63 125.065 216.314 130.056 212.572 136.885C210.371 140.707 208.813 144.861 208.33 149.271C208.328 149.33 208.322 149.388 208.313 149.446C208.25 149.842 208.197 150.237 208.155 150.643V148.715C208.078 148.715 208.005 148.68 207.928 148.673V148.638C207.658 148.598 207.39 148.545 207.126 148.477L186.952 136.465C186.047 135.653 185.392 134.598 185.066 133.427C184.507 131.167 183.243 129.145 181.457 127.652C179.933 126.465 178.137 125.676 176.232 125.356C176.116 125.328 175.994 125.31 175.882 125.293C175.959 125.124 175.999 124.941 176 124.755C176 124.57 175.961 124.387 175.885 124.217C175.809 124.048 175.699 123.897 175.56 123.774C175.421 123.651 175.258 123.559 175.08 123.504L160.17 118.797C159.859 118.698 159.522 118.719 159.226 118.855C158.929 118.992 158.694 119.235 158.567 119.535L155.134 127.659C155.064 127.827 155.03 128.007 155.033 128.189C155.037 128.371 155.079 128.55 155.156 128.715C155.233 128.88 155.344 129.026 155.481 129.146C155.618 129.266 155.779 129.355 155.953 129.409L156.341 129.531V129.566L165.154 132.3L165.315 132.352C165.315 132.527 165.315 132.702 165.333 132.877C165.357 133.713 165.445 134.546 165.595 135.369C165.658 135.719 165.735 136.069 165.823 136.419C165.875 136.612 165.921 136.797 165.991 136.983L166.019 137.081C166.071 137.245 166.124 137.431 166.194 137.588C166.211 137.654 166.232 137.718 166.257 137.781C166.263 137.783 166.269 137.783 166.274 137.781C166.493 138.347 166.767 138.889 167.093 139.401C167.862 140.602 168.985 141.534 170.306 142.068C171.556 142.558 172.893 142.464 174.156 142.964C175.129 143.371 176.021 143.949 176.788 144.672L177.264 145.19C177.009 145.572 174.713 149.117 176.368 150.234L176.305 150.262L177.978 151.312L198.506 164.867C198.709 165.025 198.919 165.175 199.122 165.322L197.645 166.95C193.571 168.392 188.762 169.967 184.95 171.059C182.665 171.64 180.358 172.151 178.034 172.564C174.468 173.18 170.831 173.208 167.286 173.813C164.706 174.237 162.522 176.641 162.036 179.333C161.63 181.524 161.532 183.883 163.954 185.01C166.726 186.298 168.108 182.353 169.788 180.953C172.378 178.762 174.954 181.377 177.649 182.864C177.894 184.306 178.318 185.696 178.643 187.113C178.729 187.616 178.924 188.094 179.214 188.513C179.707 189.147 180.225 189.213 180.684 188.979L180.568 189.077C181.45 188.843 182.339 188.61 183.235 188.377C184.075 188.246 184.903 188.046 185.71 187.778C191.723 186.35 198.131 185.02 204.54 183.41H204.564C204.865 183.333 205.173 183.253 205.471 183.183C205.571 183.18 205.671 183.196 205.764 183.231C205.858 183.267 205.943 183.32 206.017 183.389C206.089 183.458 206.148 183.54 206.189 183.631C206.23 183.723 206.252 183.821 206.255 183.921C206.22 184.38 206.174 184.845 206.132 185.321C205.667 187.372 204.9 192.909 204.032 197.379C203.556 199.36 203.063 201.208 202.587 202.846C201.813 204.596 201.057 206.321 201.295 207.746C201.321 208.381 201.567 208.988 201.992 209.461C202.415 209.935 202.991 210.247 203.619 210.343L204.725 210.511C205.485 210.693 206.769 210.913 208.379 211.144C208.6 212.709 208.838 214.294 209.1 215.834L209.163 216.223C209.349 217.241 209.541 218.281 209.734 219.31V219.338V219.373L209.891 220.216L210.059 221.126L208.782 232.445L208.4 235.9L198.684 321.576L188.464 324.296L180.806 326.34C180.527 326.399 180.261 326.509 180.022 326.665C179.667 326.887 179.374 327.197 179.173 327.565C178.971 327.933 178.867 328.346 178.871 328.765C178.872 329.176 178.978 329.58 179.179 329.938C179.289 330.149 179.428 330.345 179.592 330.519C179.93 330.853 180.358 331.083 180.824 331.18C180.997 331.221 181.175 331.241 181.352 331.24H211.2L213.65 321.583L228.28 263.693L229.047 264.393C229.047 264.393 229.047 264.421 229.075 264.428V264.446L251.51 285.775L251.776 286.009L252.126 286.359L256.798 290.794L257.148 291.119L257.288 291.259C274.736 308.115 275.359 310.317 274.97 310.548H274.75L266.7 327.25C266.449 327.774 266.389 328.37 266.53 328.934C266.672 329.498 267.005 329.995 267.473 330.34L268.037 330.753C268.543 331.119 269.169 331.281 269.789 331.205C270.41 331.13 270.979 330.824 271.383 330.347L291.819 306.46C291.819 306.46 290.304 305.063 287.409 299.096ZM181.3 188.454C181.406 188.325 181.503 188.189 181.59 188.048C181.594 188.092 181.61 188.134 181.636 188.17L181.3 188.454ZM198.621 166.6C198.737 166.547 198.849 166.502 198.971 166.456L200.179 165.984L200.231 166.008C199.713 166.201 199.174 166.404 198.621 166.6ZM206.815 148.4C205.77 148.072 204.807 147.526 203.99 146.797L202.874 146.128L207.011 148.435C206.941 148.438 206.878 148.438 206.815 148.421V148.4Z" fill="white"/>
<path d="M201.306 166.219L200.697 165.991C200.653 165.968 200.611 165.942 200.571 165.914C197.389 163.856 194.904 160.951 192.78 157.864C190.54 154.606 182.854 151.253 180.369 148.166C178.776 146.213 177.11 143.966 174.671 142.993C173.414 142.499 172.07 142.594 170.821 142.097C169.498 141.565 168.376 140.632 167.611 139.43C167.28 138.917 167.002 138.371 166.782 137.802C166.755 137.737 166.733 137.67 166.715 137.603C166.633 137.405 166.567 137.201 166.516 136.994C166.449 136.805 166.4 136.623 166.351 136.43C166.255 136.085 166.18 135.734 166.124 135.38C165.993 134.589 165.91 133.79 165.875 132.99V132.951C165.847 132.139 165.858 131.341 165.896 130.561V130.54H165.858L162.284 129.283C161.791 129.12 161.351 128.827 161.011 128.434C160.671 128.042 160.443 127.565 160.352 127.054C160.304 126.769 160.313 126.477 160.38 126.196C160.462 125.825 160.624 125.476 160.854 125.174C161.084 124.871 161.378 124.623 161.714 124.446C162.024 124.281 162.366 124.182 162.716 124.156C163.067 124.13 163.419 124.176 163.751 124.292L170.943 126.903L172.42 127.435L172.459 127.456C172.459 127.456 172.459 125.265 174.559 125.311C176.501 125.36 183.54 125.93 185.626 133.627C185.951 134.797 186.606 135.849 187.512 136.658L204.515 146.839C205.671 147.887 207.122 148.553 208.67 148.747V150.906C208.668 150.908 208.666 150.91 208.665 150.913C208.663 150.916 208.663 150.919 208.663 150.922C208.663 150.925 208.663 150.927 208.665 150.93C208.666 150.933 208.668 150.935 208.67 150.938V152.509L210.021 161.977L210.973 168.595C209.731 168.696 208.481 168.651 207.249 168.462L206.44 168.158H206.419L201.306 166.219Z" fill="white"/>
<path d="M208.446 150.794V150.822C208.043 154.367 207.644 158.483 207.329 163.037C205.061 164.087 202.748 164.997 200.473 165.903C200.429 165.88 200.387 165.855 200.347 165.826C198.801 164.811 197.382 163.615 196.119 162.263L176.82 150.286C178.014 149.682 179.078 148.85 179.952 147.836L180.012 147.777C183.648 143.871 186.802 137.277 187.194 136.451L187.278 136.538L204.281 146.72C205.437 147.767 206.888 148.432 208.435 148.624L208.446 150.794Z" fill="#2E2E2E"/>
<path d="M174.213 130.704L173.824 131.754L173.453 132.772L173.25 133.35L173.222 133.437L173.184 133.542C173.092 133.805 172.9 134.02 172.651 134.142C172.401 134.263 172.113 134.28 171.85 134.19L165.697 132.3H165.669L156.828 129.584L159.124 124.155L160.136 121.765C160.265 121.464 160.501 121.222 160.799 121.086C161.096 120.95 161.434 120.93 161.746 121.03L173.929 124.88C173.534 124.79 173.133 124.732 172.729 124.708C172.442 124.691 172.154 124.738 171.887 124.845C171.621 124.952 171.381 125.117 171.185 125.328C171 125.538 170.867 125.789 170.796 126.06C170.725 126.331 170.718 126.615 170.776 126.889C170.958 127.592 171.32 128.236 171.826 128.758C171.875 128.814 171.924 128.863 171.98 128.919C172.432 129.42 172.956 129.853 173.534 130.203C173.534 130.203 173.551 130.203 173.572 130.231C173.593 130.259 173.572 130.231 173.572 130.231C173.774 130.403 173.989 130.561 174.213 130.704Z" fill="#2A69B4"/>
<path d="M165.83 132.3C165.83 132.489 165.83 132.692 165.851 132.881C165.876 133.719 165.965 134.553 166.117 135.377C166.173 135.73 166.249 136.081 166.345 136.427C166.394 136.616 166.439 136.798 166.506 136.987C166.572 137.176 166.642 137.407 166.726 137.617C166.753 137.694 166.785 137.77 166.821 137.844" stroke="black" stroke-width="3.7" stroke-miterlimit="10"/>
<path d="M177.012 131.408C176.662 131.352 176.312 131.285 175.962 131.198C175.612 131.11 175.353 131.016 175.059 130.904C174.591 130.721 174.141 130.494 173.715 130.225C173.715 130.225 173.687 130.225 173.677 130.197C173.037 129.806 172.462 129.318 171.972 128.751C171.466 128.23 171.104 127.586 170.922 126.882C170.858 126.608 170.862 126.323 170.934 126.051C171.005 125.779 171.141 125.528 171.332 125.321C171.528 125.111 171.768 124.946 172.034 124.839C172.301 124.732 172.588 124.685 172.875 124.702C173.414 124.744 173.949 124.827 174.475 124.95C175.227 125.083 175.98 125.206 176.725 125.36C178.63 125.685 180.426 126.473 181.954 127.656C183.736 129.15 184.999 131.171 185.563 133.427C185.885 134.598 186.536 135.653 187.439 136.465L208.659 149.1" stroke="black" stroke-width="3.7" stroke-miterlimit="10"/>
<path d="M165.854 132.877C165.854 132.877 166.533 136.695 171.843 136.59C172.255 136.575 172.651 136.435 172.98 136.188C173.31 135.94 173.555 135.598 173.684 135.207C173.813 134.816 173.819 134.395 173.701 134C173.584 133.605 173.348 133.256 173.026 132.999L172.956 132.947" stroke="black" stroke-width="3.7" stroke-miterlimit="10"/>
<path d="M166.708 137.585C166.708 137.585 169.309 140.291 171.902 139.122C174.195 138.072 172.627 136.017 172.627 136.017" stroke="black" stroke-width="3.7" stroke-miterlimit="10"/>
<path d="M173.803 132.825L173.614 132.769" stroke="black" stroke-width="3.7" stroke-miterlimit="10"/>
<path d="M146.349 280.728C145.246 280.886 144.128 280.917 143.017 280.822L141.267 280.682L146.349 280.728Z" fill="#D7E8F0"/>
<path d="M166.019 201.618L159.492 267.068C159.149 270.488 157.667 273.694 155.283 276.169C152.898 278.645 149.75 280.247 146.346 280.718C145.242 280.876 144.124 280.908 143.014 280.812L141.264 280.672L61.4041 274.222C59.0899 274.041 56.8482 273.331 54.8521 272.146C53.8868 270.117 53.3881 267.897 53.3926 265.65V264.128L126.763 270.078L128.513 270.221C129.624 270.313 130.741 270.281 131.845 270.127C135.249 269.654 138.396 268.052 140.78 265.577C143.164 263.101 144.647 259.896 144.991 256.477L150.241 203.924L166.019 201.618Z" fill="#2A69B4"/>
<path d="M150.234 203.886L144.984 256.438C144.64 259.858 143.157 263.063 140.773 265.538C138.389 268.014 135.242 269.616 131.838 270.088C130.734 270.243 129.617 270.275 128.506 270.183L126.756 270.039L53.3857 264.089V231.081C53.3875 227.394 54.7171 223.831 57.1311 221.044C59.5454 218.257 62.8826 216.432 66.5317 215.905L150.234 203.886Z" fill="#D7E8F0"/>
<path d="M152.439 287.416C151.334 287.574 150.215 287.606 149.104 287.511L147.354 287.371L152.439 287.416Z" fill="#D7E8F0"/>
<path d="M146.391 280.728L154.217 297.409C154.958 298.991 155.289 300.735 155.177 302.478C155.066 304.222 154.516 305.909 153.579 307.384C152.642 308.859 151.348 310.074 149.817 310.915C148.286 311.757 146.567 312.199 144.82 312.2H139.22C139.003 312.2 138.788 312.242 138.588 312.325C138.387 312.407 138.205 312.528 138.052 312.682C137.898 312.834 137.777 313.017 137.694 313.217C137.61 313.417 137.568 313.632 137.568 313.848V321.982C137.568 322.707 137.28 323.403 136.767 323.916C136.254 324.428 135.559 324.716 134.834 324.716C134.109 324.716 133.414 324.428 132.901 323.916C132.389 323.403 132.101 322.707 132.101 321.982V313.845C132.101 313.628 132.059 313.413 131.976 313.213C131.893 313.012 131.771 312.83 131.618 312.677C131.464 312.524 131.282 312.403 131.081 312.32C130.881 312.237 130.666 312.195 130.449 312.196H68.6597C68.443 312.196 68.2285 312.238 68.0283 312.321C67.8281 312.404 67.6461 312.525 67.4931 312.678C67.3398 312.831 67.2184 313.013 67.1358 313.214C67.0532 313.414 67.0108 313.628 67.0112 313.845V321.979C66.986 322.687 66.6867 323.358 66.1764 323.851C65.6661 324.343 64.985 324.618 64.2759 324.618C63.5668 324.618 62.8857 324.343 62.3754 323.851C61.8655 323.358 61.5659 322.687 61.5407 321.979V313.845C61.541 313.628 61.4987 313.414 61.4161 313.214C61.3335 313.013 61.212 312.831 61.0587 312.678C60.9058 312.525 60.7238 312.404 60.5236 312.321C60.3234 312.238 60.1088 312.196 59.8922 312.196H50.2882C49.71 312.174 49.1629 311.928 48.7618 311.51C48.3607 311.093 48.1367 310.537 48.1367 309.958C48.1367 309.379 48.3607 308.823 48.7618 308.406C49.1629 307.989 49.71 307.743 50.2882 307.72H142.8C143.966 307.719 145.114 307.424 146.136 306.862C147.159 306.301 148.024 305.492 148.651 304.509C149.278 303.526 149.649 302.401 149.727 301.237C149.805 300.073 149.59 298.908 149.1 297.85L141.145 280.7" fill="#2E2E2E"/>
<path d="M143.013 280.823L61.404 274.225C57.5655 273.916 53.9847 272.172 51.3737 269.342C48.7627 266.512 47.3126 262.802 47.313 258.951V224.392C47.314 220.706 48.6437 217.143 51.058 214.357C53.4726 211.571 56.8099 209.749 60.459 209.223L160.328 194.873L170.173 181.241C170.437 180.962 170.755 180.741 171.108 180.59C171.461 180.439 171.841 180.363 172.224 180.365C172.608 180.367 172.987 180.448 173.338 180.603C173.689 180.758 174.005 180.984 174.265 181.265C174.713 181.756 174.972 182.391 174.995 183.055C175.018 183.72 174.804 184.371 174.391 184.891L166.292 198.818L159.498 267.068C159.1 271.063 157.15 274.742 154.067 277.314C150.984 279.886 147.015 281.146 143.013 280.823Z" stroke="black" stroke-width="3.7" stroke-miterlimit="10"/>
<path d="M143.37 322.724C143.374 324.291 142.945 325.829 142.13 327.168C141.316 328.507 140.148 329.595 138.755 330.313C137.362 331.031 135.798 331.351 134.235 331.238C132.672 331.124 131.171 330.582 129.896 329.671C128.621 328.759 127.623 327.514 127.01 326.071C126.398 324.628 126.195 323.045 126.424 321.495C126.653 319.944 127.306 318.487 128.31 317.284C129.314 316.081 130.63 315.177 132.114 314.674V321.982C132.114 322.707 132.403 323.402 132.915 323.915C133.428 324.428 134.123 324.716 134.848 324.716C135.573 324.716 136.268 324.428 136.781 323.915C137.293 323.402 137.581 322.707 137.581 321.982V314.671C139.269 315.237 140.735 316.319 141.774 317.764C142.813 319.209 143.371 320.944 143.37 322.724Z" stroke="black" stroke-width="3.7" stroke-miterlimit="10"/>
<path d="M72.8001 322.724C72.8029 324.291 72.3738 325.828 71.5594 327.166C70.7449 328.505 69.5773 329.593 68.1843 330.31C66.7917 331.028 65.2279 331.347 63.6655 331.233C62.1027 331.119 60.6019 330.576 59.3279 329.664C58.0539 328.752 57.0564 327.507 56.4446 326.064C55.8332 324.622 55.6312 323.038 55.8615 321.489C56.0918 319.939 56.7449 318.483 57.7494 317.281C58.7539 316.078 60.0706 315.176 61.5546 314.674V321.982C61.5557 322.707 61.8444 323.402 62.3575 323.915C62.8706 324.428 63.5664 324.716 64.2916 324.716C65.0165 324.716 65.7119 324.428 66.2247 323.915C66.7371 323.402 67.0251 322.707 67.0251 321.982V314.671C68.7107 315.238 70.1751 316.321 71.2115 317.766C72.2478 319.211 72.8036 320.945 72.8001 322.724Z" stroke="black" stroke-width="3.7" stroke-miterlimit="10"/>
<path d="M146.391 280.728L154.217 297.409C154.958 298.991 155.289 300.735 155.177 302.478C155.066 304.222 154.516 305.909 153.579 307.384C152.642 308.859 151.348 310.074 149.817 310.915C148.286 311.757 146.567 312.199 144.82 312.2H139.22C139.003 312.2 138.788 312.242 138.588 312.325C138.387 312.407 138.205 312.528 138.052 312.682C137.898 312.834 137.777 313.017 137.694 313.217C137.61 313.417 137.568 313.632 137.568 313.848V321.982C137.568 322.707 137.28 323.403 136.767 323.916C136.254 324.428 135.559 324.716 134.834 324.716C134.109 324.716 133.414 324.428 132.901 323.916C132.389 323.403 132.101 322.707 132.101 321.982V313.845C132.101 313.628 132.059 313.413 131.976 313.213C131.893 313.012 131.771 312.83 131.618 312.677C131.464 312.524 131.282 312.403 131.081 312.32C130.881 312.237 130.666 312.195 130.449 312.196H68.6597C68.443 312.196 68.2285 312.238 68.0283 312.321C67.8281 312.404 67.6461 312.525 67.4931 312.678C67.3398 312.831 67.2184 313.013 67.1358 313.214C67.0532 313.414 67.0108 313.628 67.0112 313.845V321.979C66.986 322.687 66.6867 323.358 66.1764 323.851C65.6661 324.343 64.985 324.618 64.2759 324.618C63.5668 324.618 62.8857 324.343 62.3754 323.851C61.8655 323.358 61.5659 322.687 61.5407 321.979V313.845C61.541 313.628 61.4987 313.414 61.4161 313.214C61.3335 313.013 61.212 312.831 61.0587 312.678C60.9058 312.525 60.7238 312.404 60.5236 312.321C60.3234 312.238 60.1088 312.196 59.8922 312.196H50.2882C49.71 312.174 49.1629 311.928 48.7618 311.51C48.3607 311.093 48.1367 310.537 48.1367 309.958C48.1367 309.379 48.3607 308.823 48.7618 308.406C49.1629 307.989 49.71 307.743 50.2882 307.72H142.8C143.966 307.719 145.114 307.424 146.136 306.862C147.159 306.301 148.024 305.492 148.651 304.509C149.278 303.526 149.649 302.401 149.727 301.237C149.805 300.073 149.59 298.908 149.1 297.85L141.145 280.7" stroke="black" stroke-width="3.7" stroke-miterlimit="10"/>
<path d="M174.412 130.607L173.6 132.77L173.38 133.351L173.313 133.543C173.222 133.801 173.033 134.012 172.788 134.133C172.543 134.254 172.261 134.275 172.001 134.191L165.83 132.301L156.45 129.417C156.276 129.363 156.116 129.273 155.979 129.154C155.841 129.035 155.73 128.888 155.653 128.723C155.576 128.558 155.534 128.379 155.531 128.197C155.527 128.015 155.561 127.834 155.631 127.667L159.061 119.54C159.191 119.24 159.427 118.998 159.725 118.862C160.022 118.726 160.359 118.706 160.671 118.805L175.578 123.512C175.756 123.566 175.92 123.658 176.06 123.78C176.201 123.902 176.313 124.053 176.391 124.221C176.469 124.39 176.51 124.574 176.511 124.76C176.513 124.946 176.475 125.13 176.4 125.301" stroke="black" stroke-width="3.7" stroke-miterlimit="10"/>
<path d="M171.325 126.213L158.057 121.919" stroke="black" stroke-width="3.7" stroke-miterlimit="10"/>
<path d="M187.453 136.464C187.453 136.464 182.35 147.563 177.405 150.198C177.369 150.217 177.338 150.244 177.316 150.277C177.294 150.311 177.281 150.35 177.279 150.39C177.277 150.43 177.285 150.47 177.303 150.506C177.322 150.542 177.35 150.573 177.384 150.594L200.571 165.899" stroke="black" stroke-width="3.7" stroke-miterlimit="10"/>
<path d="M177.8 145.18C177.8 145.18 174.937 149.352 177.051 150.374" stroke="black" stroke-width="3.7" stroke-miterlimit="10"/>
<path d="M179.386 172.41C179.386 172.41 178.213 172.463 180.565 175.424C182.917 178.385 183.715 184.02 182.116 188.048C182.116 188.048 182.046 189.098 186.232 187.789C190.418 186.48 205.1 183.418 205.1 183.418C205.1 183.418 207.393 182.21 206.682 185.269C205.972 188.328 204.582 199.581 203.13 202.825C201.677 206.07 200.263 209.286 205.261 210.504C210.259 211.722 237.524 214.284 237.524 214.284C237.524 214.284 256.074 218.397 255.878 209.878C255.682 201.359 254.321 176.834 254.321 176.834C254.321 176.834 254.433 157.903 255.682 146.71C255.682 146.71 258.944 118.272 249.246 115.644C239.547 113.015 236.253 115.812 233.793 117.138C231.332 118.465 209.643 129.801 208.46 153.188C208.46 153.188 208.38 162.225 206.549 163.573C204.719 164.92 183.299 172.33 179.386 172.41Z" fill="#2E2E2E"/>
<path d="M214.154 321.576L211.704 331.233H181.874C181.219 331.228 180.592 330.97 180.124 330.512C179.811 330.197 179.588 329.805 179.478 329.376C179.368 328.946 179.375 328.494 179.499 328.068C179.622 327.642 179.858 327.257 180.181 326.954C180.504 326.649 180.902 326.437 181.335 326.34L199.213 321.576C199.213 321.576 209.562 325.213 214.154 321.576Z" fill="#2E2E2E"/>
<path d="M248.818 214.819C248.591 214.819 248.353 214.84 248.118 214.84C247.185 220.867 246.147 226.874 245.003 232.862C231.64 229.869 213.178 235.175 213.178 235.175L213.566 237.275C210.521 237.44 209.587 236.316 209.587 236.316L208.915 235.9L210.591 221.105L210.269 219.355V219.299C210.07 218.27 209.881 217.231 209.699 216.202L209.632 215.824C209.366 214.231 209.118 212.632 208.897 211.039L209.118 211.071C209.195 211.071 209.268 211.099 209.356 211.106L209.545 211.137C209.709 211.155 209.87 211.183 210.031 211.204C210.381 211.249 210.833 211.316 211.337 211.393C211.536 211.393 211.746 211.442 211.967 211.48C219.555 212.534 239.323 215.106 248.818 214.819Z" fill="#2A69B4"/>
<path d="M228.833 263.504L228.788 263.687L214.154 321.576L211.704 331.233H181.874C181.219 331.228 180.592 330.97 180.124 330.512C179.811 330.198 179.588 329.805 179.478 329.375C179.368 328.945 179.376 328.494 179.499 328.068C179.623 327.642 179.858 327.256 180.181 326.952C180.504 326.647 180.902 326.435 181.335 326.337L199.213 321.576L208.915 235.9L210.591 221.105" stroke="black" stroke-width="3.7" stroke-miterlimit="10"/>
<path d="M182.882 183.67C181.832 183.719 181.244 183.729 181.244 183.729C180.194 183.803 179.176 183.404 178.168 182.861C175.473 181.374 172.89 178.766 170.3 180.957C168.623 182.357 167.241 186.298 164.469 185.014C162.05 183.89 162.145 181.514 162.544 179.337C163.041 176.642 165.221 174.241 167.794 173.81C171.336 173.212 174.976 173.184 178.539 172.564C185.715 171.252 192.739 169.209 199.5 166.467C207.008 163.475 215.198 160.391 220.742 154.245C227.325 146.969 231.508 137.445 233.793 127.974" stroke="black" stroke-width="3.7" stroke-miterlimit="10"/>
<path d="M219.951 88.8434C219.951 88.8434 220.605 77.9479 230.776 75.3964C240.947 72.8449 247.016 84.6609 247.475 92.2454C247.933 99.8299 247.475 105.062 252.819 107.449C252.819 107.449 268.265 107.26 273.956 121.449C273.956 121.449 274.726 128.404 274.411 132.88C274.096 137.357 279.682 141.28 282.723 142.659C285.765 144.038 291.057 149.659 289.618 158.84C288.18 168.02 276.171 172.301 276.171 172.301C276.171 172.301 265.909 175.339 259.721 170.267C253.152 164.888 255.01 155.049 255.01 155.049C255.01 155.049 258.556 123.052 252.102 117.795C248.549 114.901 246.936 115.163 244.426 113.637C241.784 112.031 240.839 111.537 239.953 110.407C238.231 108.191 235.179 104.845 237.388 96.9529C239.596 89.0604 237.388 93.0399 235.288 91.9269C235.288 91.9269 232.712 87.9509 228.823 90.7614C224.935 93.5719 225.883 86.7154 225.883 86.7154L224.175 89.0114C224.175 89.0114 221.505 89.5469 219.951 88.8434Z" fill="#2A69B4"/>
<path d="M217.557 92.6103C217.462 87.5248 219.359 81.8128 223.311 78.4248C223.847 77.9628 224.423 77.5495 225.033 77.1893C229.303 74.6658 235.235 74.8933 239.484 77.3468C241.744 78.6891 243.629 80.5787 244.965 82.8418L245 82.9048C246.646 85.7409 247.501 88.9672 247.475 92.2463C247.496 96.5093 247.52 102.295 250.257 105.833C251.986 108.073 254.286 107.443 256.816 107.825C260.243 108.34 263.493 109.679 266.287 111.727C270.06 114.503 273.203 118.643 274.071 123.319C274.908 127.82 273.273 132.895 275.699 137.057C277.477 140.098 280.858 141.488 283.721 143.262C289.468 146.867 290.651 153.853 288.831 159.999C286.934 166.408 282.475 170.345 276.171 172.309C276.171 172.309 254.87 177.559 254.608 158.89" stroke="black" stroke-width="3.7" stroke-miterlimit="10"/>
<path d="M225.586 86.394C225.365 87.892 224.455 89.2745 222.835 89.6875C221.008 90.153 220.035 91.931 219.524 93.7195C218.793 96.3435 218.982 99.1382 220.059 101.64C221.057 103.992 222.838 106.68 225.848 107.111C231.357 107.895 234.098 105.574 234.098 105.574" stroke="black" stroke-width="3.7" stroke-miterlimit="10"/>
<path d="M230.174 94.3982C230.698 94.3982 231.123 93.9737 231.123 93.4497C231.123 92.9258 230.698 92.5012 230.174 92.5012C229.65 92.5012 229.226 92.9258 229.226 93.4497C229.226 93.9737 229.65 94.3982 230.174 94.3982Z" fill="black"/>
<path d="M221.854 93.7762C222.378 93.7762 222.803 93.3512 222.803 92.8276C222.803 92.3037 222.378 91.8792 221.854 91.8792C221.33 91.8792 220.906 92.3037 220.906 92.8276C220.906 93.3512 221.33 93.7762 221.854 93.7762Z" fill="black"/>
<path d="M225.585 86.394C225.377 87.2942 225.409 88.2333 225.68 89.117C225.721 89.2602 225.775 89.3995 225.841 89.5335C226.499 91.077 228.028 92.309 230.741 92.155C236.631 91.8295 238.731 91.455 238.252 94.1605C238.053 95.1178 237.767 96.0551 237.398 96.9605C236.75 98.679 236.299 101.63 236.964 104.843C237.73 108.598 239.55 112.434 245.686 114.569" stroke="black" stroke-width="3.7" stroke-miterlimit="10"/>
<path d="M226.1 93.6812C226.1 93.6812 225.106 97.3142 225.207 97.8497C225.309 98.3852 226.579 97.9687 226.579 97.9687" stroke="black" stroke-width="3.7" stroke-miterlimit="10"/>
<path d="M226.8 101.298C228.7 102.323 230.905 101.676 231.766 99.9607" stroke="black" stroke-width="3.7" stroke-miterlimit="10"/>
<path d="M234.831 97.2209C236.466 95.4891 236.353 92.7276 234.579 91.0532C232.806 89.3785 230.042 89.425 228.408 91.1565C226.773 92.8883 226.885 95.6498 228.659 97.3242C230.433 98.9989 233.197 98.9524 234.831 97.2209Z" stroke="black" stroke-width="3.7" stroke-miterlimit="10"/>
<path d="M223.796 96.2078C225.431 94.476 225.319 91.7149 223.544 90.0401C221.771 88.3657 219.007 88.4119 217.373 90.1437C215.738 91.8755 215.851 94.6367 217.625 96.3114C219.398 97.9858 222.162 97.9396 223.796 96.2078Z" stroke="black" stroke-width="3.7" stroke-miterlimit="10"/>
<path d="M220.5 90.1534C220.594 90.1482 220.689 90.1482 220.783 90.1534C221.591 90.228 222.338 90.6144 222.866 91.2307C223.394 91.8467 223.662 92.644 223.611 93.4539C223.567 94.1973 223.238 94.8949 222.693 95.4031C222.149 95.9109 221.43 96.1906 220.686 96.1839C220.591 96.1839 220.496 96.1839 220.402 96.1839C219.595 96.1073 218.849 95.7202 218.322 95.1045C217.794 94.4889 217.526 93.6926 217.574 92.8834C217.619 92.14 217.947 91.4421 218.492 90.9343C219.037 90.4261 219.755 90.1464 220.5 90.1534ZM220.5 89.5059C219.592 89.501 218.716 89.8437 218.052 90.4628C217.388 91.082 216.985 91.9318 216.926 92.8379C216.867 93.8162 217.19 94.7794 217.827 95.5238C218.465 96.2686 219.367 96.7359 220.342 96.8279C220.458 96.8279 220.573 96.8454 220.692 96.8454C221.601 96.8489 222.476 96.5059 223.141 95.8861C223.805 95.2662 224.207 94.4164 224.266 93.5099C224.325 92.5317 224.001 91.5688 223.364 90.8244C222.727 90.0803 221.825 89.6123 220.85 89.5199C220.734 89.5199 220.619 89.5199 220.5 89.5199V89.5059Z" fill="white"/>
<path d="M227.258 93.7867L224.941 93.5732" stroke="black" stroke-width="3.7" stroke-miterlimit="10"/>
<path d="M231.521 91.0736H231.812C232.644 91.152 233.414 91.5503 233.957 92.1852C234.501 92.8198 234.777 93.6412 234.727 94.4756C234.677 95.2393 234.337 95.9551 233.776 96.4755C233.215 96.9963 232.476 97.2826 231.71 97.2756C231.612 97.2756 231.518 97.2756 231.42 97.2756C230.588 97.1972 229.818 96.7986 229.274 96.1637C228.731 95.5291 228.454 94.708 228.504 93.8736C228.554 93.1096 228.894 92.3931 229.455 91.8723C230.016 91.3515 230.756 91.0656 231.521 91.0736ZM231.521 90.4261C230.589 90.4195 229.69 90.7698 229.007 91.4047C228.325 92.0396 227.91 92.9118 227.85 93.8421C227.789 94.8442 228.12 95.8308 228.773 96.5938C229.426 97.3565 230.35 97.8356 231.35 97.9301C231.469 97.9301 231.584 97.9476 231.7 97.9476C232.631 97.9511 233.528 97.5994 234.209 96.9638C234.889 96.3285 235.301 95.457 235.361 94.5281C235.427 93.5243 235.098 92.5349 234.444 91.7708C233.79 91.0068 232.863 90.5294 231.861 90.4401C231.742 90.4401 231.626 90.4401 231.511 90.4401L231.521 90.4261Z" fill="white"/>
<path d="M223.341 95.7778C224.743 94.2921 224.646 91.9226 223.124 90.4858C221.602 89.0487 219.23 89.0883 217.828 90.574C216.426 92.0598 216.522 94.4289 218.045 95.866C219.567 97.3031 221.938 97.2636 223.341 95.7778Z" fill="#2A69B4"/>
<path d="M234.392 96.8009C235.801 95.3081 235.704 92.9278 234.174 91.484C232.645 90.0403 230.263 90.0802 228.854 91.5729C227.445 93.0657 227.542 95.446 229.071 96.8898C230.601 98.3335 232.983 98.2936 234.392 96.8009Z" fill="#2A69B4"/>
<path d="M230.174 118.926L228.886 113.354L227.486 107.345" stroke="black" stroke-width="3.7" stroke-miterlimit="10"/>
<path d="M292.345 306.474L271.912 330.362C271.507 330.838 270.938 331.144 270.317 331.218C269.697 331.293 269.072 331.131 268.566 330.764L268.006 330.355C267.536 330.012 267.201 329.516 267.058 328.952C266.915 328.389 266.974 327.793 267.225 327.268L275.254 310.559C275.254 310.559 288.029 310.926 287.924 299.086C290.819 305.067 292.345 306.474 292.345 306.474Z" fill="#2E2E2E"/>
<path d="M257.813 291.273L257.67 291.129L252.297 286.023L252.038 285.785L229.596 264.435V264.414L229.565 264.386L228.805 263.686L221.984 257.2C218.248 253.643 215.734 248.995 214.802 243.921L213.566 237.299L213.174 235.199L210.591 221.14L210.269 219.39V219.334C210.07 218.305 209.881 217.265 209.699 216.236L209.632 215.858" stroke="black" stroke-width="3.7" stroke-miterlimit="10"/>
<path d="M208.887 211.05C209.108 212.643 209.356 214.242 209.622 215.835L209.689 216.213C209.871 217.242 210.06 218.281 210.259 219.31V219.366" stroke="black" stroke-width="3.7" stroke-linejoin="round"/>
<path d="M229.544 264.401L229.572 264.429L229.593 264.45" stroke="black" stroke-width="3.7" stroke-linejoin="round"/>
<path d="M252.035 285.785L252.294 286.023C254.236 287.843 256.026 289.546 257.667 291.13L257.807 291.273C279.328 312.067 275.251 310.558 275.251 310.558L267.218 327.267C266.969 327.793 266.91 328.389 267.054 328.952C267.197 329.516 267.532 330.012 268.002 330.354L268.562 330.764C269.068 331.13 269.694 331.292 270.314 331.218C270.934 331.143 271.503 330.837 271.908 330.361L292.338 306.474C292.338 306.474 290.815 305.074 287.921 299.085C280.966 284.672 266.116 258.076 245.672 244.216C244.911 243.705 244.319 242.981 243.969 242.134C243.62 241.286 243.529 240.355 243.709 239.456C244.101 237.559 244.472 235.662 244.836 233.758C244.892 233.464 244.948 233.166 244.997 232.872C246.138 226.88 247.176 220.873 248.112 214.851" stroke="black" stroke-width="3.7" stroke-linejoin="round"/>
<path d="M207.55 163.124C207.865 158.574 208.25 154.455 208.666 150.874C208.722 150.332 208.789 149.796 208.845 149.271C209.699 141.47 213.93 134.428 219.135 128.719C224.28 123.077 230.828 117.593 238.259 115.37C240.652 114.616 243.172 114.344 245.672 114.569C247.387 114.775 249.027 115.396 250.45 116.377C251.872 117.358 253.035 118.67 253.837 120.2C254.833 122.157 255.469 124.277 255.713 126.458C255.713 126.486 255.713 126.514 255.713 126.546C256.151 130.046 255.902 133.717 255.941 137.193C256.007 144.445 255.388 151.683 254.586 158.893" stroke="black" stroke-width="3.7" stroke-linejoin="round"/>
<path d="M206.927 181.261V181.251" stroke="black" stroke-width="3.7" stroke-linejoin="round"/>
<path d="M178.549 172.55C181.863 176.428 183.928 182.088 182.507 187.149C182.157 188.349 180.89 189.977 179.739 188.496C179.448 188.077 179.253 187.599 179.168 187.096C178.843 185.672 178.416 184.272 178.167 182.826" stroke="black" stroke-width="3.7" stroke-miterlimit="10"/>
<path d="M181.093 189.07C208.166 181.916 246.501 179.494 254.758 141.75C255.839 136.724 256.162 131.565 255.717 126.445" stroke="black" stroke-width="3.7" stroke-miterlimit="10"/>
<path d="M206.85 182.966C206.314 191.996 203.486 201.866 201.925 206.766C201.803 207.146 201.765 207.548 201.813 207.944C201.862 208.341 201.996 208.721 202.206 209.061C202.416 209.4 202.697 209.69 203.03 209.91C203.362 210.131 203.739 210.276 204.134 210.336C205.411 210.536 207.028 210.774 208.887 211.036L209.107 211.068C209.184 211.068 209.258 211.096 209.345 211.103L209.534 211.134C209.699 211.152 209.86 211.18 210.021 211.201C210.441 211.267 210.878 211.323 211.326 211.39C211.526 211.39 211.736 211.439 211.956 211.477C222.806 213.017 238.969 215.03 248.115 214.83C248.353 214.83 248.591 214.83 248.815 214.809L249.515 214.781L250.194 214.743C252.693 214.561 254.394 214.134 254.88 213.381C258.03 208.618 252.185 181.241 254.985 155.036" stroke="black" stroke-width="3.7" stroke-miterlimit="10"/>
<path d="M279.66 331.237H23.3799" stroke="black" stroke-width="3.7" stroke-linejoin="round"/>
<path d="M35.2554 250.986C35.2554 250.986 0.552864 291.687 35.2554 330.814" stroke="#CCDDE2" stroke-width="3.7" stroke-miterlimit="10"/>
</svg>
