<svg width="20" height="20" viewBox="0 0 20 20" fill="none" xmlns="http://www.w3.org/2000/svg">
<path fill-rule="evenodd" clip-rule="evenodd" d="M19.949 9.01739C20.2167 11.6503 19.4228 14.2811 17.7419 16.3313C16.0611 18.3814 13.631 19.6828 10.9863 19.9493C8.34157 20.2157 5.69886 19.4253 3.63951 17.752C1.58016 16.0787 0.272874 13.6595 0.00522904 11.0267C-0.0210204 10.7799 0.052273 10.5329 0.208985 10.3399C0.365698 10.1469 0.592993 10.0238 0.840867 9.99771C1.08874 9.97157 1.33689 10.0445 1.53073 10.2006C1.72456 10.3566 1.8482 10.5828 1.87445 10.8296C2.01916 12.1935 2.50906 13.4985 3.29832 14.6226C4.08758 15.7467 5.1504 16.6531 6.38732 17.2569C7.62423 17.8607 8.99481 18.1423 10.3708 18.0753C11.7468 18.0083 13.0832 17.5948 14.255 16.8736C15.4268 16.1525 16.3956 15.1471 17.0709 13.9517C17.7461 12.7563 18.1057 11.4098 18.116 10.0384C18.1262 8.66699 17.7868 7.31539 17.1295 6.11009C16.4722 4.9048 15.5185 3.88521 14.3577 3.14673V5.30068C14.3577 5.54877 14.2587 5.78669 14.0824 5.96212C13.9062 6.13754 13.6672 6.23609 13.418 6.23609C13.1688 6.23609 12.9298 6.13754 12.7536 5.96212C12.5774 5.78669 12.4784 5.54877 12.4784 5.30068V0H17.8029C18.0521 0 18.2911 0.0985523 18.4673 0.273976C18.6436 0.449401 18.7426 0.687327 18.7426 0.935414C18.7426 1.1835 18.6436 1.42143 18.4673 1.59685C18.2911 1.77228 18.0521 1.87083 17.8029 1.87083H15.8159C16.9766 2.70004 17.9459 3.76666 18.6587 4.99921C19.3715 6.23176 19.8115 7.60176 19.949 9.01739ZM8.71992 2.49444C9.05219 2.49444 9.37085 2.36303 9.6058 2.12914C9.84075 1.89524 9.97275 1.578 9.97275 1.24722C9.97275 0.916436 9.84075 0.599201 9.6058 0.365302C9.37085 0.131403 9.05219 0 8.71992 0C8.38764 0 8.06898 0.131403 7.83403 0.365302C7.59908 0.599201 7.46709 0.916436 7.46709 1.24722C7.46709 1.578 7.59908 1.89524 7.83403 2.12914C8.06898 2.36303 8.38764 2.49444 8.71992 2.49444ZM5.90105 2.80624C5.90105 3.13703 5.76905 3.45426 5.5341 3.68816C5.29915 3.92206 4.98049 4.05346 4.64822 4.05346C4.31595 4.05346 3.99728 3.92206 3.76233 3.68816C3.52738 3.45426 3.39539 3.13703 3.39539 2.80624C3.39539 2.47546 3.52738 2.15822 3.76233 1.92433C3.99728 1.69043 4.31595 1.55902 4.64822 1.55902C4.98049 1.55902 5.29915 1.69043 5.5341 1.92433C5.76905 2.15822 5.90105 2.47546 5.90105 2.80624ZM1.82935 7.48331C2.16162 7.48331 2.48028 7.35191 2.71523 7.11801C2.95019 6.88411 3.08218 6.56688 3.08218 6.23609C3.08218 5.90531 2.95019 5.58808 2.71523 5.35418C2.48028 5.12028 2.16162 4.98888 1.82935 4.98888C1.49708 4.98888 1.17842 5.12028 0.943465 5.35418C0.708514 5.58808 0.57652 5.90531 0.57652 6.23609C0.57652 6.56688 0.708514 6.88411 0.943465 7.11801C1.17842 7.35191 1.49708 7.48331 1.82935 7.48331Z" fill="#F72D57"/>
</svg>
